<?xml version="1.0" encoding="UTF-8"?>
<svg id="Layer_2" xmlns="http://www.w3.org/2000/svg" version="1.1" viewBox="0 0 500 201">
  <!-- Generator: Adobe Illustrator 29.0.1, SVG Export Plug-In . SVG Version: 2.1.0 Build 192)  -->
  <defs>
    <style>
      .st0 {
        fill: #fff;
      }
    </style>
  </defs>
  <g id="Layer_1-2">
    <g id="Layer_1-3">
      <g>
        <g>
          <path class="st0" d="M105.8,75.4h.2c.9,0,1.8.4,2.4,1.2.8,1,.9,2.8.2,4-.2.4-.5.5-.8.8-.6.4-1.3.7-2.1.6h0v-.9c-.8,0-1.5-.3-2-.8-1-.9-1.2-2.5-.4-3.6s1.5-1.2,2.4-1.2h0s0,0,0,0Z"/>
          <path class="st0" d="M165.6,128.1l.9,2.3v1.3l-3.6,4.1h-.3s-.7-.7-.7-.7h0l2.7-3.9-.7.2-.2-.2-.6-2.5.4-.5,1.4-.5.7.6h0q0,0,0,0Z"/>
          <polygon class="st0" points="253 78.7 253 82.2 254.8 82.2 254.8 85.6 251.3 85.6 251.3 84 253 84 253 82.2 249.5 82.2 249.5 78.7 253 78.7"/>
          <path class="st0" d="M155.1,94.5h.3c1.9.1,3.3,1.8,3.2,3.8,0,1.1-.6,2.1-1.5,2.7-1.9,1.3-4.8.4-5.4-1.8,0-.2-.1-.5-.2-.8s0-.3.3-.3h.4c.1,0,.2,0,.2,0,0,0,0,.2,0,.3.3,1.7,2,2.7,3.6,2.1s1.7-1.6,1.6-2.7,0-.2,0-.3c0-.1-.1,0-.1,0,0,.1,0,.3-.1.4-.7,1.7-3.1,2-4.2.4-.6-.8-.6-1.8,0-2.7s1.3-1.2,2.2-1.2h-.1Z"/>
        </g>
        <g>
          <path class="st0" d="M.2,7.7h1.4L3.5,1.3H1l-.4,1.6h-.6L.6.7h6.7l-.6,2.2h-.6l.4-1.6h-2.4l-1.8,6.5h1.4v.5H0v-.5h.1Z"/>
          <path class="st0" d="M9.5.5h-1v-.5h1.8l-1.3,4.6c1.3-1.4,2-1.8,2.7-1.8s1.4.9,1.1,2l-.8,2.6c-.1.4,0,.6.3.6s.7-.2,1.3-.6l.2.4c-.9.5-1.3.7-1.7.7-.7,0-.9-.5-.8-1.3l.7-2.5c.3-.9,0-1.4-.7-1.4s-1.3.5-2.8,2l-.9,3.1h-.6L9.5.5h0Z"/>
          <path class="st0" d="M15.3,5.8c0-1.8,1.5-3.1,3.3-3.1s2.3.7,2.3,1.7-1,1.6-3,1.6-1.3,0-2.1-.1h0c0,1.3.9,2.2,2.3,2.2s1.4-.2,2.4-.6l.2.4c-1.1.5-1.8.7-2.7.7-1.7,0-2.8-1-2.8-2.6ZM16,5.3c.7,0,1.4.1,2,.1,1.6,0,2.5-.4,2.5-1.1s-.8-1.1-1.8-1.1-2.4.9-2.6,2.1c0,0,0,0,0,0Z"/>
          <path class="st0" d="M36.8,3.5l-.4,1.3h-.5l.3-1c-.5-.4-1.2-.5-1.8-.5-1.6,0-2.7,1.1-2.7,2.6s.9,2.1,2.4,2.1,1.3-.1,2.2-.6l.2.4c-1.1.5-1.8.7-2.5.7-1.7,0-2.9-1.1-2.9-2.6s1.4-3.1,3.3-3.1,1.8.3,2.5.8c0,0,0,0,0,0Z"/>
          <path class="st0" d="M38.8,5.8c0-1.8,1.3-3.1,3.1-3.1s2.7,1,2.7,2.6-1.3,3.1-3.1,3.1-2.7-1-2.7-2.6ZM44,5.3c0-1.2-.9-2.1-2.1-2.1s-2.5,1.1-2.5,2.6.9,2.1,2.1,2.1,2.5-1.1,2.5-2.6Z"/>
          <path class="st0" d="M47.3,3.3h-.7v-.5h1.4l-.4,1.5c.9-1.3,1.3-1.6,1.8-1.6s1,.6.9,1.4h0c.8-1.1,1.2-1.4,1.7-1.4s1,.6.8,1.6l-.9,3.1c0,.3,0,.4.1.4s.4,0,.9-.4l.2.4c-.7.4-1,.5-1.3.5-.5,0-.7-.4-.5-1l.9-3.1c.2-.6,0-1-.4-1s-.8.4-1.8,1.7l-1,3.4h-.6l1.2-4.1c.2-.6,0-1-.4-1s-.8.4-1.9,1.9l-.9,3.1h-.6l1.4-5s0,0,0,0Z"/>
          <path class="st0" d="M55.2,3.3h-.7v-.5h1.4l-.4,1.5c.9-1.3,1.3-1.6,1.8-1.6s1,.6.9,1.4h0c.8-1.1,1.2-1.4,1.7-1.4s1,.6.8,1.6l-.9,3.1c0,.3,0,.4.1.4s.4,0,.9-.4l.2.4c-.7.4-1,.5-1.3.5-.5,0-.7-.4-.5-1l.9-3.1c.2-.6,0-1-.4-1s-.8.4-1.8,1.7l-1,3.4h-.6l1.2-4.1c.2-.6,0-1-.4-1s-.8.4-1.9,1.9l-.9,3.1h-.6l1.4-5s0,0,0,0Z"/>
          <path class="st0" d="M62.1,6.2c0-2,1.5-3.6,3.5-3.6s1.4.2,1.9.7l.2-.6h.6l-1.3,4.5c-.1.4,0,.6.3.6s.7-.2,1.3-.6l.2.4c-.9.5-1.3.7-1.7.7-.6,0-.9-.4-.8-1.1-1.1.9-1.6,1.1-2.2,1.1-1.2,0-2-.9-2-2.2h0ZM64.2,7.9c.6,0,1.3-.3,2.3-1.2l.8-2.7c-.5-.5-1.1-.7-1.8-.7-1.6,0-2.8,1.3-2.8,3s.6,1.7,1.5,1.7h0Z"/>
          <path class="st0" d="M80.7.7h3.2v.5h-2.7l-2.3,8.2h2.6v.5h-3.3l2.7-9.3h0,0Z"/>
          <path class="st0" d="M95.6,8.5c-.4.2-.8.2-1.2.2-1.1,0-1.9-.9-1.9-1.9s1.2-2.6,2.7-2.6,2.3,1,2.3,2.5c0,3.4-3.5,6.7-8.2,7.7l-.3-1.2c3.3-.9,5.9-2.7,6.7-4.7h0Z"/>
          <path class="st0" d="M113,10h-3.2v-.5h2.7l2.3-8.2h-2.6v-.5h3.3l-2.7,9.3h0,0Z"/>
          <path class="st0" d="M225.7,115.4c-.4-.3-1.3-.5-2.1-.5s-1.6.4-1.6,1,.4.7,1,.9l1.5.4c.9.2,1.3.7,1.3,1.3,0,1-1,1.7-2.5,1.7s-2.1-.3-2.7-.8l.3-1.1h.5l-.2.8c.5.4,1.3.6,2.3.6s1.8-.4,1.8-1.1-.3-.7-.9-.8l-1.5-.4c-.9-.2-1.3-.7-1.3-1.3,0-1,.9-1.6,2.3-1.6s2,.3,2.6.7l-.3,1.2h-.5l.2-.9h0q0,0,0,0Z"/>
          <path class="st0" d="M228.9,114.5h2.9l-1.1,3.7c-.2.8,0,1.3.6,1.3s1.2-.3,2.7-1.1l.2.4c-1.7.9-2.3,1.2-2.9,1.2-1,0-1.5-.8-1.2-1.9l.9-3.1h-2.2v-.5c.1,0,.1,0,.1,0h0ZM231.1,112.6c0-.4.4-.7.8-.7s.6.3.6.6-.3.7-.7.7-.6-.3-.6-.6h0Z"/>
          <path class="st0" d="M236,118c0-2,1.5-3.6,3.5-3.6s1.4.2,1.9.7l.2-.6h.6l-1.8,6.2c-.4,1.3-1.2,2-2.3,2s-1.4-.2-2.5-.5l.2-.5c1.1.4,1.7.5,2.3.5.9,0,1.4-.5,1.8-1.6l.4-1.6c-1.1.9-1.6,1.1-2.2,1.1-1.2,0-2-.9-2-2.2h0ZM238.2,119.6c.6,0,1.3-.3,2.3-1.2l.8-2.7c-.5-.5-1.1-.7-1.8-.7-1.6,0-2.8,1.3-2.8,3s.6,1.7,1.5,1.7h0Z"/>
          <path class="st0" d="M245.2,115h-1.1v-.5h1.8l-.5,1.8c1.3-1.4,2-1.8,2.7-1.8s1.4.9,1.1,2l-.8,2.6c-.1.4,0,.6.3.6s.7-.2,1.3-.6l.2.4c-.9.5-1.3.7-1.7.7-.7,0-.9-.5-.8-1.3l.7-2.5c.3-.9,0-1.4-.7-1.4s-1.3.5-2.8,2l-.9,3.1h-.6l1.4-5h0Z"/>
          <path class="st0" d="M251.6,118c0-2,1.5-3.6,3.5-3.6s1.4.2,1.9.7l.2-.6h.6l-1.3,4.5c-.1.4,0,.6.3.6s.7-.2,1.3-.6l.2.4c-.9.5-1.3.7-1.7.7-.6,0-.9-.4-.8-1.1-1.1.9-1.6,1.1-2.2,1.1-1.2,0-2-.9-2-2.2h0ZM253.7,119.6c.6,0,1.3-.3,2.3-1.2l.8-2.7c-.5-.5-1.1-.7-1.8-.7-1.6,0-2.8,1.3-2.8,3s.6,1.7,1.5,1.7h0Z"/>
          <path class="st0" d="M265.3,118.8c-1.8,1-2.4,1.3-3.1,1.3-1,0-1.4-.8-1.1-1.9l1.7-5.9h-2.2v-.5h3l-1.9,6.6c-.2.8,0,1.3.6,1.3s1.2-.3,2.8-1.2l.2.4h0q0,0,0,0Z"/>
          <path class="st0" d="M272.6,115.4c-.4-.3-1.3-.5-2.1-.5s-1.6.4-1.6,1,.4.7,1,.9l1.5.4c.9.2,1.3.7,1.3,1.3,0,1-1,1.7-2.5,1.7s-2.1-.3-2.7-.8l.3-1.1h.5l-.2.8c.5.4,1.3.6,2.3.6s1.8-.4,1.8-1.1-.3-.7-.9-.8l-1.5-.4c-.9-.2-1.3-.7-1.3-1.3,0-1,.9-1.6,2.3-1.6s2,.3,2.6.7l-.3,1.2h-.5l.2-.9h0q0,0,0,0Z"/>
          <path class="st0" d="M284.2,118l.9-3h-2v-.5h2.2l.4-1.6h.6l-.4,1.6h3.3v.5h-3.4l-.9,3.1c-.3,1,0,1.5.9,1.5s1.3-.2,2.5-.6v.4c-1.1.4-1.9.7-2.6.7-1.3,0-1.8-.8-1.4-2.1h0s0,0,0,0Z"/>
          <path class="st0" d="M292.9,112.2h-1v-.5h1.8l-1.3,4.6c1.3-1.4,2-1.8,2.7-1.8s1.4.9,1.1,2l-.8,2.6c-.1.4,0,.6.3.6s.7-.2,1.3-.6l.2.4c-.9.5-1.3.7-1.7.7-.7,0-.9-.5-.8-1.3l.7-2.5c.3-.9,0-1.4-.7-1.4s-1.3.5-2.8,2l-.9,3.1h-.6l2.2-7.8h0s0,0,0,0Z"/>
          <path class="st0" d="M298.7,117.5c0-1.8,1.5-3.1,3.3-3.1s2.3.7,2.3,1.7-1,1.6-3,1.6-1.3,0-2.1-.1h0c0,1.3.9,2.2,2.3,2.2s1.4-.2,2.4-.6l.2.4c-1.1.5-1.8.7-2.7.7-1.7,0-2.8-1-2.8-2.6h0ZM299.4,117c.7,0,1.4.1,2,.1,1.6,0,2.5-.4,2.5-1.1s-.8-1.1-1.8-1.1-2.4.9-2.6,2.1h0Z"/>
          <path class="st0" d="M314.9,114.5h2.9l-1.1,3.7c-.2.8,0,1.3.6,1.3s1.2-.3,2.7-1.1l.2.4c-1.7.9-2.3,1.2-2.9,1.2-1,0-1.5-.8-1.2-1.9l.9-3.1h-2.2v-.5c.1,0,.1,0,.1,0h0ZM317.2,112.6c0-.4.4-.7.8-.7s.6.3.6.6-.3.7-.7.7-.6-.3-.6-.6h0Z"/>
          <path class="st0" d="M323.4,115h-1.1v-.5h1.8l-.5,1.8c1.3-1.4,2-1.8,2.7-1.8s1.4.9,1.1,2l-.8,2.6c-.1.4,0,.6.3.6s.7-.2,1.3-.6l.2.4c-.9.5-1.3.7-1.7.7-.7,0-.9-.5-.8-1.3l.7-2.5c.3-.9,0-1.4-.7-1.4s-1.3.5-2.8,2l-.9,3.1h-.6l1.4-5h0Z"/>
          <path class="st0" d="M335.2,116.4l-.2.5h-4.3l.2-.5h4.3Z"/>
          <path class="st0" d="M340.6,111.7l-1.1,3.8c.7-.7,1.4-1.1,2.2-1.1,1.3,0,2.1.9,2.1,2.3s-1.4,3.4-3.2,3.4-1.5-.4-2.1-1.1l-.3,1h-.6l2.2-7.8h-1.1v-.5h1.9ZM339.3,116.2l-.6,2.2c.5.8,1.2,1.2,2,1.2,1.3,0,2.5-1.3,2.5-2.8s-.6-1.9-1.6-1.9-1.3.4-2.2,1.3h0Z"/>
          <path class="st0" d="M345.7,117.5c0-1.8,1.5-3.1,3.3-3.1s2.3.7,2.3,1.7-1,1.6-3,1.6-1.3,0-2.1-.1h0c0,1.3.9,2.2,2.3,2.2s1.4-.2,2.4-.6l.2.4c-1.1.5-1.8.7-2.7.7-1.7,0-2.8-1-2.8-2.6h0ZM346.3,117c.7,0,1.4.1,2,.1,1.6,0,2.5-.4,2.5-1.1s-.8-1.1-1.8-1.1-2.4.9-2.6,2.1h0Z"/>
          <path class="st0" d="M354.6,118l.9-3h-2v-.5h2.2l.4-1.6h.6l-.4,1.6h3.3v.5h-3.4l-.9,3.1c-.3,1,0,1.5.9,1.5s1.3-.2,2.5-.6v.4c-1.1.4-1.9.7-2.6.7-1.3,0-1.8-.8-1.4-2.1h0s0,0,0,0Z"/>
          <path class="st0" d="M362.1,115h-.9v-.5h1.6l-1.3,4.3c-.2.5,0,.9.3.9s1.2-.8,2.2-2.1l.5-1.8h.5l-.9,3c-.2.6,0,.9.3.9,1,0,2.6-2.3,2.6-3.8s0-.7-.4-1.3l.5-.2c.3.6.4,1.1.4,1.5,0,1.8-1.8,4.4-3.1,4.4s-1-.5-.8-1.5h0c-.8.9-1.5,1.5-2,1.5s-.9-.5-.6-1.4l1-3.6h0s0,0,0,0Z"/>
          <path class="st0" d="M369.1,117.5c0-1.8,1.5-3.1,3.3-3.1s2.3.7,2.3,1.7-1,1.6-3,1.6-1.3,0-2.1-.1h0c0,1.3.9,2.2,2.3,2.2s1.4-.2,2.4-.6l.2.4c-1.1.5-1.8.7-2.7.7-1.7,0-2.8-1-2.8-2.6h0ZM369.8,117c.7,0,1.4.1,2,.1,1.6,0,2.5-.4,2.5-1.1s-.8-1.1-1.8-1.1-2.3.9-2.6,2.1h0Z"/>
          <path class="st0" d="M376.9,117.5c0-1.8,1.5-3.1,3.3-3.1s2.3.7,2.3,1.7-1,1.6-3,1.6-1.3,0-2.1-.1h0c0,1.3.9,2.2,2.3,2.2s1.4-.2,2.4-.6l.2.4c-1.1.5-1.8.7-2.7.7-1.7,0-2.8-1-2.8-2.6h0ZM377.6,117c.7,0,1.4.1,2,.1,1.6,0,2.5-.4,2.5-1.1s-.8-1.1-1.8-1.1-2.4.9-2.6,2.1h0Z"/>
          <path class="st0" d="M386,115h-1.1v-.5h1.8l-.5,1.8c1.3-1.4,2-1.8,2.7-1.8s1.4.9,1.1,2l-.8,2.6c-.1.4,0,.6.3.6s.7-.2,1.3-.6l.2.4c-.9.5-1.3.7-1.7.7-.7,0-.9-.5-.8-1.3l.7-2.5c.3-.9,0-1.4-.7-1.4s-1.3.5-2.8,2l-.9,3.1h-.6l1.4-5h0Z"/>
          <path class="st0" d="M395.1,120c-.1,0-.3,0-.4,0-.4,0-.6-.3-.6-.6s.4-.9.9-.9.8.4.8.8c0,1.1-1.1,2.2-2.7,2.5v-.4c1-.3,1.8-.9,2.1-1.5h0Z"/>
          <path class="st0" d="M409.5,115h-1.1v-.5h1.8l-.5,1.8c1.3-1.4,2-1.8,2.7-1.8s1.4.9,1.1,2l-.8,2.6c-.1.4,0,.6.3.6s.7-.2,1.3-.6l.2.4c-.9.5-1.3.7-1.7.7-.7,0-.9-.5-.8-1.3l.7-2.5c.3-.9,0-1.4-.7-1.4s-1.3.5-2.8,2l-.9,3.1h-.6l1.4-5h0Z"/>
          <path class="st0" d="M416,117.5c0-1.8,1.3-3.1,3.1-3.1s2.7,1,2.7,2.6-1.3,3.1-3.1,3.1-2.7-1-2.7-2.6ZM421.2,117c0-1.2-.9-2.1-2.1-2.1s-2.5,1.1-2.5,2.6.9,2.1,2.1,2.1,2.5-1.1,2.5-2.6Z"/>
          <path class="st0" d="M425,118l.9-3h-2v-.5h2.2l.4-1.6h.6l-.4,1.6h3.3v.5h-3.4l-.9,3.1c-.3,1,0,1.5.9,1.5s1.3-.2,2.5-.6v.4c-1.1.4-1.9.7-2.6.7-1.3,0-1.8-.8-1.4-2.1h0s0,0,0,0Z"/>
          <path class="st0" d="M439.4,118c0-2,1.5-3.6,3.5-3.6s1.4.2,1.9.7l.2-.6h.6l-2.2,7.6h1.2v.5h-3.1v-.5h1.3l.9-3.1c-1.1.9-1.6,1.1-2.2,1.1-1.2,0-2-.9-2-2.2h0ZM441.6,119.6c.6,0,1.3-.3,2.3-1.2l.8-2.7c-.5-.5-1.1-.7-1.8-.7-1.6,0-2.8,1.3-2.8,3s.6,1.7,1.5,1.7h0Z"/>
          <path class="st0" d="M451.4,118.3c-1.3,1.4-1.9,1.8-2.7,1.8s-1.4-.9-1.1-2l.9-3.1h-1.1v-.5h1.8l-1,3.6c-.3.9,0,1.4.7,1.4s1.3-.5,2.7-2l.9-3.1h.6l-1.3,4.5c-.1.4,0,.6.3.6s.7-.2,1.3-.6l.2.4c-.9.5-1.3.7-1.7.7-.7,0-.9-.5-.8-1.3v-.5h.2Z"/>
          <path class="st0" d="M455.8,114.5h2.9l-1.1,3.7c-.2.8,0,1.3.6,1.3s1.2-.3,2.7-1.1l.2.4c-1.7.9-2.3,1.2-2.9,1.2-1,0-1.5-.8-1.2-1.9l.9-3.1h-2.2v-.5c.1,0,.1,0,.1,0h0ZM458,112.6c0-.4.4-.7.8-.7s.6.3.6.6-.3.7-.7.7-.6-.3-.6-.6h0Z"/>
          <path class="st0" d="M464.1,118l.9-3h-2v-.5h2.2l.4-1.6h.6l-.4,1.6h3.3v.5h-3.4l-.9,3.1c-.3,1,0,1.5.9,1.5s1.3-.2,2.5-.6v.4c-1.1.4-1.9.7-2.6.7-1.3,0-1.8-.8-1.4-2.1h0s0,0,0,0Z"/>
          <path class="st0" d="M470.8,117.5c0-1.8,1.5-3.1,3.3-3.1s2.3.7,2.3,1.7-1,1.6-3,1.6-1.3,0-2.1-.1h0c0,1.3.9,2.2,2.3,2.2s1.4-.2,2.4-.6l.2.4c-1.1.5-1.8.7-2.7.7-1.7,0-2.8-1-2.8-2.6h0ZM471.5,117c.7,0,1.4.1,2,.1,1.6,0,2.5-.4,2.5-1.1s-.8-1.1-1.8-1.1-2.3.9-2.6,2.1h0Z"/>
          <path class="st0" d="M221.6,133.7l.9-3h-2v-.5h2.2l.4-1.6h.6l-.4,1.6h3.3v.5h-3.4l-.9,3.1c-.3,1,0,1.5.9,1.5s1.3-.2,2.5-.6v.4c-1.1.4-1.9.7-2.6.7-1.3,0-1.8-.8-1.4-2.1h0s0,0,0,0Z"/>
          <path class="st0" d="M229.3,135.6l1.4-5h-2v-.5h2.7l-.5,1.9c1.6-1.5,2.3-2,3-2s.9.1,1.3.4l-.3.5c-.6-.3-.9-.4-1.1-.4-.6,0-1.3.4-3,2l-.9,3h-.6,0Z"/>
          <path class="st0" d="M235.9,133.6c0-2,1.5-3.6,3.5-3.6s1.4.2,1.9.7l.2-.6h.6l-1.3,4.5c-.1.4,0,.6.3.6s.7-.2,1.3-.6l.2.4c-.9.5-1.3.7-1.7.7-.6,0-.9-.4-.8-1.1-1.1.9-1.6,1.1-2.2,1.1-1.2,0-2-.9-2-2.2h0ZM238.1,135.2c.6,0,1.3-.3,2.3-1.2l.8-2.7c-.5-.5-1.1-.7-1.8-.7-1.6,0-2.8,1.3-2.8,3s.6,1.7,1.5,1.7h0Z"/>
          <path class="st0" d="M245.2,130.7h-1.1v-.5h1.8l-.5,1.8c1.3-1.4,2-1.8,2.7-1.8s1.4.9,1.1,2l-.8,2.6c-.1.4,0,.6.3.6s.7-.2,1.3-.6l.2.4c-.9.5-1.3.7-1.7.7-.7,0-.9-.5-.8-1.3l.7-2.5c.3-.9,0-1.4-.7-1.4s-1.3.5-2.8,2l-.9,3.1h-.6l1.4-5h0Z"/>
          <path class="st0" d="M256.9,131c-.4-.3-1.3-.5-2.1-.5s-1.6.4-1.6,1,.4.7,1,.9l1.5.4c.9.2,1.3.7,1.3,1.3,0,1-1,1.7-2.5,1.7s-2.1-.3-2.7-.8l.3-1.1h.5l-.2.8c.5.4,1.3.6,2.3.6s1.8-.4,1.8-1.1-.3-.7-.9-.8l-1.5-.4c-.9-.2-1.3-.7-1.3-1.3,0-1,.9-1.6,2.3-1.6s2,.3,2.6.7l-.3,1.2h-.5l.2-.9h0q0,0,0,0Z"/>
          <path class="st0" d="M258.8,137.8l2-7.1h-1.1v-.5h1.8l-.3.9c.7-.7,1.4-1.1,2.2-1.1,1.3,0,2.1.9,2.1,2.3s-1.4,3.4-3.2,3.4-1.5-.4-2.1-1.1l-.9,3.1h1.3v.5h-3.1v-.5h1.3ZM261.1,131.9l-.6,2.2c.5.8,1.2,1.2,2,1.2,1.3,0,2.5-1.3,2.5-2.8s-.7-1.9-1.6-1.9-1.3.4-2.2,1.3h0Z"/>
          <path class="st0" d="M267.2,133.6c0-2,1.5-3.6,3.5-3.6s1.4.2,1.9.7l.2-.6h.6l-1.3,4.5c-.1.4,0,.6.3.6s.7-.2,1.3-.6l.2.4c-.9.5-1.3.7-1.7.7-.6,0-.9-.4-.8-1.1-1.1.9-1.6,1.1-2.2,1.1-1.2,0-2-.9-2-2.2h0ZM269.4,135.2c.6,0,1.3-.3,2.3-1.2l.8-2.7c-.5-.5-1.1-.7-1.8-.7-1.6,0-2.8,1.3-2.8,3s.6,1.7,1.5,1.7h0Z"/>
          <path class="st0" d="M276.3,135.6l1.4-5h-2v-.5h2.7l-.5,1.9c1.6-1.5,2.3-2,3-2s.9.1,1.3.4l-.3.5c-.6-.3-.9-.4-1.1-.4-.6,0-1.3.4-3,2l-.9,3h-.6,0Z"/>
          <path class="st0" d="M283.1,133.2c0-1.8,1.5-3.1,3.3-3.1s2.3.7,2.3,1.7-1,1.6-3,1.6-1.3,0-2.1-.1h0c0,1.3.9,2.2,2.3,2.2s1.4-.2,2.4-.6l.2.4c-1.1.5-1.8.7-2.7.7-1.7,0-2.8-1-2.8-2.6h0ZM283.7,132.6c.7,0,1.4.1,2,.1,1.6,0,2.5-.4,2.5-1.1s-.8-1.1-1.8-1.1-2.4.9-2.6,2.1h0Z"/>
          <path class="st0" d="M292.1,130.7h-1.1v-.5h1.8l-.5,1.8c1.3-1.4,2-1.8,2.7-1.8s1.4.9,1.1,2l-.8,2.6c-.1.4,0,.6.3.6s.7-.2,1.3-.6l.2.4c-.9.5-1.3.7-1.7.7-.7,0-.9-.5-.8-1.3l.7-2.5c.3-.9,0-1.4-.7-1.4s-1.3.5-2.8,2l-.9,3.1h-.6l1.4-5h0Z"/>
          <path class="st0" d="M299.8,133.7l.9-3h-2v-.5h2.2l.4-1.6h.6l-.4,1.6h3.3v.5h-3.4l-.9,3.1c-.3,1,0,1.5.9,1.5s1.3-.2,2.5-.6v.4c-1.1.4-1.9.7-2.6.7-1.3,0-1.8-.8-1.4-2.1h0s0,0,0,0Z"/>
          <path class="st0" d="M309,135.7c-.1,0-.3,0-.4,0-.4,0-.6-.3-.6-.6s.4-.9.9-.9.8.4.8.8c0,1.1-1.1,2.2-2.7,2.5v-.4c1-.3,1.8-.9,2.1-1.5h0Z"/>
          <path class="st0" d="M323.4,130.7h-1.1v-.5h1.8l-.5,1.8c1.3-1.4,2-1.8,2.7-1.8s1.4.9,1.1,2l-.8,2.6c-.1.4,0,.6.3.6s.7-.2,1.3-.6l.2.4c-.9.5-1.3.7-1.7.7-.7,0-.9-.5-.8-1.3l.7-2.5c.3-.9,0-1.4-.7-1.4s-1.3.5-2.8,2l-.9,3.1h-.6l1.4-5h0Z"/>
          <path class="st0" d="M330,133.2c0-1.8,1.3-3.1,3.1-3.1s2.7,1,2.7,2.6-1.3,3.1-3.1,3.1-2.7-1-2.7-2.6ZM335.1,132.6c0-1.2-.9-2.1-2.1-2.1s-2.5,1.1-2.5,2.6.9,2.1,2.1,2.1,2.5-1.1,2.5-2.6Z"/>
          <path class="st0" d="M339,133.7l.9-3h-2v-.5h2.2l.4-1.6h.6l-.4,1.6h3.3v.5h-3.4l-.9,3.1c-.3,1,0,1.5.9,1.5s1.3-.2,2.5-.6v.4c-1.1.4-1.9.7-2.6.7-1.3,0-1.8-.8-1.4-2.1h0s0,0,0,0Z"/>
          <path class="st0" d="M353.4,133.6c0-2,1.5-3.6,3.5-3.6s1.4.2,1.9.7l.2-.6h.6l-2.2,7.6h1.2v.5h-3.1v-.5h1.3l.9-3.1c-1.1.9-1.6,1.1-2.2,1.1-1.2,0-2-.9-2-2.2h0ZM355.5,135.2c.6,0,1.3-.3,2.3-1.2l.8-2.7c-.5-.5-1.1-.7-1.8-.7-1.6,0-2.8,1.3-2.8,3s.6,1.7,1.5,1.7h0Z"/>
          <path class="st0" d="M365.3,133.9c-1.3,1.4-1.9,1.8-2.7,1.8s-1.4-.9-1.1-2l.9-3.1h-1.1v-.5h1.8l-1,3.6c-.3.9,0,1.4.7,1.4s1.3-.5,2.7-2l.9-3.1h.6l-1.3,4.5c-.1.4,0,.6.3.6s.7-.2,1.3-.6l.2.4c-.9.5-1.3.7-1.7.7-.7,0-.9-.5-.8-1.3v-.5h.2Z"/>
          <path class="st0" d="M369.7,130.2h2.9l-1.1,3.7c-.2.8,0,1.3.6,1.3s1.2-.3,2.7-1.1l.2.4c-1.7.9-2.3,1.2-2.9,1.2-1,0-1.5-.8-1.2-1.9l.9-3.1h-2.2v-.5c.1,0,.1,0,.1,0h0ZM372,128.2c0-.4.4-.7.8-.7s.6.3.6.6-.3.7-.7.7-.6-.3-.6-.6h0Z"/>
          <path class="st0" d="M378.1,133.7l.9-3h-2v-.5h2.2l.4-1.6h.6l-.4,1.6h3.3v.5h-3.4l-.9,3.1c-.3,1,0,1.5.9,1.5s1.3-.2,2.5-.6v.4c-1.1.4-1.9.7-2.6.7-1.3,0-1.8-.8-1.4-2.1h0s0,0,0,0Z"/>
          <path class="st0" d="M384.8,133.2c0-1.8,1.5-3.1,3.3-3.1s2.3.7,2.3,1.7-1,1.6-3,1.6-1.3,0-2.1-.1h0c0,1.3.9,2.2,2.3,2.2s1.4-.2,2.4-.6l.2.4c-1.1.5-1.8.7-2.7.7-1.7,0-2.8-1-2.8-2.6h0ZM385.4,132.6c.7,0,1.4.1,2,.1,1.6,0,2.5-.4,2.5-1.1s-.8-1.1-1.8-1.1-2.3.9-2.6,2.1h0Z"/>
          <path class="st0" d="M400.4,133.2c0-1.8,1.3-3.1,3.1-3.1s2.7,1,2.7,2.6-1.3,3.1-3.1,3.1-2.7-1-2.7-2.6ZM405.5,132.6c0-1.2-.9-2.1-2.1-2.1s-2.5,1.1-2.5,2.6.9,2.1,2.1,2.1,2.5-1.1,2.5-2.6Z"/>
          <path class="st0" d="M407.4,137.8l2-7.1h-1.1v-.5h1.8l-.3.9c.7-.7,1.4-1.1,2.2-1.1,1.3,0,2.1.9,2.1,2.3s-1.4,3.4-3.2,3.4-1.5-.4-2.1-1.1l-.9,3.1h1.3v.5h-3.1v-.5h1.3ZM409.7,131.9l-.6,2.2c.5.8,1.2,1.2,2,1.2,1.3,0,2.5-1.3,2.5-2.8s-.7-1.9-1.6-1.9-1.3.4-2.2,1.3h0Z"/>
          <path class="st0" d="M415.8,133.6c0-2,1.5-3.6,3.5-3.6s1.4.2,1.9.7l.2-.6h.6l-1.3,4.5c-.1.4,0,.6.3.6s.7-.2,1.3-.6l.2.4c-.9.5-1.3.7-1.7.7-.6,0-.9-.4-.8-1.1-1.1.9-1.6,1.1-2.2,1.1-1.2,0-2-.9-2-2.2h0ZM418,135.2c.6,0,1.3-.3,2.3-1.2l.8-2.7c-.5-.5-1.1-.7-1.8-.7-1.6,0-2.8,1.3-2.8,3s.6,1.7,1.5,1.7h0Z"/>
          <path class="st0" d="M423.8,133.6c0-2,1.5-3.6,3.5-3.6s1.4.2,1.9.7l.2-.6h.6l-2.2,7.6h1.2v.5h-3.1v-.5h1.3l.9-3.1c-1.1.9-1.6,1.1-2.2,1.1-1.2,0-2-.9-2-2.2h0ZM426,135.2c.6,0,1.3-.3,2.3-1.2l.8-2.7c-.5-.5-1.1-.7-1.8-.7-1.6,0-2.8,1.3-2.8,3s.6,1.7,1.5,1.7h0Z"/>
          <path class="st0" d="M435.7,133.9c-1.3,1.4-1.9,1.8-2.7,1.8s-1.4-.9-1.1-2l.9-3.1h-1.1v-.5h1.8l-1,3.6c-.3.9,0,1.4.7,1.4s1.3-.5,2.7-2l.9-3.1h.6l-1.3,4.5c-.1.4,0,.6.3.6s.7-.2,1.3-.6l.2.4c-.9.5-1.3.7-1.7.7-.7,0-.9-.5-.8-1.3v-.5h.2Z"/>
          <path class="st0" d="M439.5,133.2c0-1.8,1.5-3.1,3.3-3.1s2.3.7,2.3,1.7-1,1.6-3,1.6-1.3,0-2.1-.1h0c0,1.3.9,2.2,2.3,2.2s1.4-.2,2.4-.6l.2.4c-1.1.5-1.8.7-2.7.7-1.7,0-2.8-1-2.8-2.6h0ZM440.2,132.6c.7,0,1.4.1,2,.1,1.6,0,2.5-.4,2.5-1.1s-.8-1.1-1.8-1.1-2.3.9-2.6,2.1h0Z"/>
          <path class="st0" d="M448.9,135.1c0-.4.4-.8.8-.8s.7.3.7.7-.4.8-.8.8-.7-.3-.7-.7h0Z"/>
          <path class="st0" d="M219.8,166.4l4.6-7h.8l.5,7h.8v.5h-2.5v-.5h1.2v-2h-3.4l-1.3,2h1v.5h-2.5v-.5h.9,0ZM224.9,163.9l-.3-4-2.6,4h2.9Z"/>
          <path class="st0" d="M235.3,169l2-7.1h-1.1v-.5h1.8l-.3.9c.7-.7,1.4-1.1,2.2-1.1,1.3,0,2.1.9,2.1,2.3s-1.4,3.4-3.2,3.4-1.5-.4-2.1-1.1l-.9,3.1h1.3v.5h-3.1v-.5h1.3ZM237.6,163.2l-.6,2.2c.5.8,1.2,1.2,2,1.2,1.3,0,2.5-1.3,2.5-2.8s-.7-1.9-1.6-1.9-1.3.4-2.2,1.3h0Z"/>
          <path class="st0" d="M243.7,164.9c0-2,1.5-3.6,3.5-3.6s1.4.2,1.9.7l.2-.6h.6l-1.3,4.5c-.1.4,0,.6.3.6s.7-.2,1.3-.6l.2.4c-.9.5-1.3.7-1.7.7-.6,0-.9-.4-.8-1.1-1.1.9-1.6,1.1-2.2,1.1-1.2,0-2-.9-2-2.2h0ZM245.9,166.5c.6,0,1.3-.3,2.3-1.2l.8-2.7c-.5-.5-1.1-.7-1.8-.7-1.6,0-2.8,1.3-2.8,3s.6,1.7,1.5,1.7h0Z"/>
          <path class="st0" d="M255.8,165.2c-1.3,1.4-1.9,1.8-2.7,1.8s-1.4-.9-1.1-2l.9-3.1h-1.1v-.5h1.8l-1,3.6c-.3.9,0,1.4.7,1.4s1.3-.5,2.7-2l.9-3.1h.6l-1.3,4.5c-.1.4,0,.6.3.6s.7-.2,1.3-.6l.2.4c-.9.5-1.3.7-1.7.7-.7,0-.9-.5-.8-1.3v-.5h.2Z"/>
          <path class="st0" d="M264.8,162.3c-.4-.3-1.3-.5-2.1-.5s-1.6.4-1.6,1,.4.7,1,.9l1.5.4c.9.2,1.3.7,1.3,1.3,0,1-1,1.7-2.5,1.7s-2.1-.3-2.7-.8l.3-1.1h.5l-.2.8c.5.4,1.3.6,2.3.6s1.8-.4,1.8-1.1-.3-.7-.9-.8l-1.5-.4c-.9-.2-1.3-.7-1.3-1.3,0-1,.9-1.6,2.3-1.6s2,.3,2.6.7l-.3,1.2h-.5l.2-.9h0q0,0,0,0Z"/>
          <path class="st0" d="M267.4,164.5c0-1.8,1.5-3.1,3.3-3.1s2.3.7,2.3,1.7-1,1.6-3,1.6-1.3,0-2.1-.1h0c0,1.3.9,2.2,2.3,2.2s1.4-.2,2.4-.6l.2.4c-1.1.5-1.8.7-2.7.7-1.7,0-2.8-1-2.8-2.6h0ZM268.1,163.9c.7,0,1.4.1,2,.1,1.6,0,2.5-.4,2.5-1.1s-.8-1.1-1.8-1.1-2.4.9-2.6,2.1h0Z"/>
          <path class="st0" d="M283.7,161.5h2.9l-1.1,3.7c-.2.8,0,1.3.6,1.3s1.2-.3,2.7-1.1l.2.4c-1.7.9-2.3,1.2-2.9,1.2-1,0-1.5-.8-1.2-1.9l.9-3.1h-2.2v-.5c.1,0,.1,0,.1,0h0ZM285.9,159.5c0-.4.4-.7.8-.7s.6.3.6.6-.3.7-.7.7-.6-.3-.6-.6h0Z"/>
          <path class="st0" d="M292.1,161.9h-1.1v-.5h1.8l-.5,1.8c1.3-1.4,2-1.8,2.7-1.8s1.4.9,1.1,2l-.8,2.6c-.1.4,0,.6.3.6s.7-.2,1.3-.6l.2.4c-.9.5-1.3.7-1.7.7-.7,0-.9-.5-.8-1.3l.7-2.5c.3-.9,0-1.4-.7-1.4s-1.3.5-2.8,2l-.9,3.1h-.6l1.4-5h0Z"/>
          <path class="st0" d="M306.3,164.9c0-2,1.5-3.6,3.5-3.6s1.4.2,1.9.7l.2-.6h.6l-1.3,4.5c-.1.4,0,.6.3.6s.7-.2,1.3-.6l.2.4c-.9.5-1.3.7-1.7.7-.6,0-.9-.4-.8-1.1-1.1.9-1.6,1.1-2.2,1.1-1.2,0-2-.9-2-2.2h0ZM308.5,166.5c.6,0,1.3-.3,2.3-1.2l.8-2.7c-.5-.5-1.1-.7-1.8-.7-1.6,0-2.8,1.3-2.8,3s.6,1.7,1.5,1.7h0Z"/>
          <path class="st0" d="M327.4,162.3c-.4-.3-1.3-.5-2.1-.5s-1.6.4-1.6,1,.4.7,1,.9l1.5.4c.9.2,1.3.7,1.3,1.3,0,1-1,1.7-2.5,1.7s-2.1-.3-2.7-.8l.3-1.1h.5l-.2.8c.5.4,1.3.6,2.3.6s1.8-.4,1.8-1.1-.3-.7-.9-.8l-1.5-.4c-.9-.2-1.3-.7-1.3-1.3,0-1,.9-1.6,2.3-1.6s2,.3,2.6.7l-.3,1.2h-.5l.2-.9h0q0,0,0,0Z"/>
          <path class="st0" d="M330,164.5c0-1.8,1.5-3.1,3.3-3.1s2.3.7,2.3,1.7-1,1.6-3,1.6-1.3,0-2.1-.1h0c0,1.3.9,2.2,2.3,2.2s1.4-.2,2.4-.6l.2.4c-1.1.5-1.8.7-2.7.7-1.7,0-2.8-1-2.8-2.6h0ZM330.7,163.9c.7,0,1.4.1,2,.1,1.6,0,2.5-.4,2.5-1.1s-.8-1.1-1.8-1.1-2.4.9-2.6,2.1h0Z"/>
          <path class="st0" d="M339,161.9h-1.1v-.5h1.8l-.5,1.8c1.3-1.4,2-1.8,2.7-1.8s1.4.9,1.1,2l-.8,2.6c-.1.4,0,.6.3.6s.7-.2,1.3-.6l.2.4c-.9.5-1.3.7-1.7.7-.7,0-.9-.5-.8-1.3l.7-2.5c.3-.9,0-1.4-.7-1.4s-1.3.5-2.8,2l-.9,3.1h-.6l1.4-5h0Z"/>
          <path class="st0" d="M346.8,165l.9-3h-2v-.5h2.2l.4-1.6h.6l-.4,1.6h3.3v.5h-3.4l-.9,3.1c-.3,1,0,1.5.9,1.5s1.3-.2,2.5-.6v.4c-1.1.4-1.9.7-2.6.7-1.3,0-1.8-.8-1.4-2.1h0s0,0,0,0Z"/>
          <path class="st0" d="M353.5,164.5c0-1.8,1.5-3.1,3.3-3.1s2.3.7,2.3,1.7-1,1.6-3,1.6-1.3,0-2.1-.1h0c0,1.3.9,2.2,2.3,2.2s1.4-.2,2.4-.6l.2.4c-1.1.5-1.8.7-2.7.7-1.7,0-2.8-1-2.8-2.6h0ZM354.1,163.9c.7,0,1.4.1,2,.1,1.6,0,2.5-.4,2.5-1.1s-.8-1.1-1.8-1.1-2.3.9-2.6,2.1h0Z"/>
          <path class="st0" d="M362.5,161.9h-1.1v-.5h1.8l-.5,1.8c1.3-1.4,2-1.8,2.7-1.8s1.4.9,1.1,2l-.8,2.6c-.1.4,0,.6.3.6s.7-.2,1.3-.6l.2.4c-.9.5-1.3.7-1.7.7-.7,0-.9-.5-.8-1.3l.7-2.5c.3-.9,0-1.4-.7-1.4s-1.3.5-2.8,2l-.9,3.1h-.6l1.4-5h0Z"/>
          <path class="st0" d="M375,162.1l-.4,1.3h-.5l.3-1c-.5-.4-1.2-.5-1.8-.5-1.6,0-2.7,1.1-2.7,2.6s.9,2.1,2.4,2.1,1.3-.1,2.2-.6l.2.4c-1.1.5-1.8.7-2.5.7-1.7,0-2.9-1.1-2.9-2.6s1.4-3.1,3.3-3.1,1.8.3,2.5.8h0q0,0,0,0Z"/>
          <path class="st0" d="M376.9,164.5c0-1.8,1.5-3.1,3.3-3.1s2.3.7,2.3,1.7-1,1.6-3,1.6-1.3,0-2.1-.1h0c0,1.3.9,2.2,2.3,2.2s1.4-.2,2.4-.6l.2.4c-1.1.5-1.8.7-2.7.7-1.7,0-2.8-1-2.8-2.6h0ZM377.6,163.9c.7,0,1.4.1,2,.1,1.6,0,2.5-.4,2.5-1.1s-.8-1.1-1.8-1.1-2.4.9-2.6,2.1h0Z"/>
          <path class="st0" d="M393.7,165l.9-3h-2v-.5h2.2l.4-1.6h.6l-.4,1.6h3.3v.5h-3.4l-.9,3.1c-.3,1,0,1.5.9,1.5s1.3-.2,2.5-.6v.4c-1.1.4-1.9.7-2.6.7-1.3,0-1.8-.8-1.4-2.1h0s0,0,0,0Z"/>
          <path class="st0" d="M402.4,159.2h-1v-.5h1.8l-1.3,4.6c1.3-1.4,2-1.8,2.7-1.8s1.4.9,1.1,2l-.8,2.6c-.1.4,0,.6.3.6s.7-.2,1.3-.6l.2.4c-.9.5-1.3.7-1.7.7-.7,0-.9-.5-.8-1.3l.7-2.5c.3-.9,0-1.4-.7-1.4s-1.3.5-2.8,2l-.9,3.1h-.6l2.2-7.8h0s0,0,0,0Z"/>
          <path class="st0" d="M408,164.9c0-2,1.5-3.6,3.5-3.6s1.4.2,1.9.7l.2-.6h.6l-1.3,4.5c-.1.4,0,.6.3.6s.7-.2,1.3-.6l.2.4c-.9.5-1.3.7-1.7.7-.6,0-.9-.4-.8-1.1-1.1.9-1.6,1.1-2.2,1.1-1.2,0-2-.9-2-2.2h0ZM410.2,166.5c.6,0,1.3-.3,2.3-1.2l.8-2.7c-.5-.5-1.1-.7-1.8-.7-1.6,0-2.8,1.3-2.8,3s.6,1.7,1.5,1.7h0Z"/>
          <path class="st0" d="M417.2,165l.9-3h-2v-.5h2.2l.4-1.6h.6l-.4,1.6h3.3v.5h-3.4l-.9,3.1c-.3,1,0,1.5.9,1.5s1.3-.2,2.5-.6v.4c-1.1.4-1.9.7-2.6.7-1.3,0-1.8-.8-1.4-2.1h0s0,0,0,0Z"/>
          <path class="st0" d="M432.3,161.5h2.9l-1.1,3.7c-.2.8,0,1.3.6,1.3s1.2-.3,2.7-1.1l.2.4c-1.7.9-2.3,1.2-2.9,1.2-1,0-1.5-.8-1.2-1.9l.9-3.1h-2.2v-.5c.1,0,.1,0,.1,0h0ZM434.5,159.5c0-.4.4-.7.8-.7s.6.3.6.6-.3.7-.7.7-.6-.3-.6-.6h0Z"/>
          <path class="st0" d="M444.7,162.3c-.4-.3-1.3-.5-2.1-.5s-1.6.4-1.6,1,.4.7,1,.9l1.5.4c.9.2,1.3.7,1.3,1.3,0,1-1,1.7-2.5,1.7s-2.1-.3-2.7-.8l.3-1.1h.5l-.2.8c.5.4,1.3.6,2.3.6s1.8-.4,1.8-1.1-.3-.7-.9-.8l-1.5-.4c-.9-.2-1.3-.7-1.3-1.3,0-1,.9-1.6,2.3-1.6s2,.3,2.6.7l-.3,1.2h-.5l.2-.9h0q0,0,0,0Z"/>
          <path class="st0" d="M455.6,165l.9-3.1h-1.1v-.5h1.8l-1,3.6c-.3.9,0,1.4.7,1.4s1.3-.5,2.7-2l.9-3.1h.6l-1.8,6.2c-.4,1.3-1.2,2-2.3,2s-1.4-.2-2.5-.5l.2-.5c1.1.4,1.7.5,2.3.5.9,0,1.4-.5,1.8-1.6l.7-2.3c-1.3,1.4-2,1.8-2.7,1.8s-1.4-.9-1.1-2h0Z"/>
          <path class="st0" d="M463,164.5c0-1.8,1.5-3.1,3.3-3.1s2.3.7,2.3,1.7-1,1.6-3,1.6-1.3,0-2.1-.1h0c0,1.3.9,2.2,2.3,2.2s1.4-.2,2.4-.6l.2.4c-1.1.5-1.8.7-2.7.7-1.7,0-2.8-1-2.8-2.6h0ZM463.7,163.9c.7,0,1.4.1,2,.1,1.6,0,2.5-.4,2.5-1.1s-.8-1.1-1.8-1.1-2.3.9-2.6,2.1h0Z"/>
          <path class="st0" d="M471.9,165l.9-3h-2v-.5h2.2l.4-1.6h.6l-.4,1.6h3.3v.5h-3.4l-.9,3.1c-.3,1,0,1.5.9,1.5s1.3-.2,2.5-.6v.4c-1.1.4-1.9.7-2.6.7-1.3,0-1.8-.8-1.4-2.1h0s0,0,0,0Z"/>
          <path class="st0" d="M487.6,165l.9-3h-2v-.5h2.2l.4-1.6h.6l-.4,1.6h3.3v.5h-3.4l-.9,3.1c-.3,1,0,1.5.9,1.5s1.3-.2,2.5-.6v.4c-1.1.4-1.9.7-2.6.7-1.3,0-1.8-.8-1.4-2.1h0s0,0,0,0Z"/>
          <path class="st0" d="M494.2,164.5c0-1.8,1.3-3.1,3.1-3.1s2.7,1,2.7,2.6-1.3,3.1-3.1,3.1-2.7-1-2.7-2.6ZM499.4,163.9c0-1.2-.9-2.1-2.1-2.1s-2.5,1.1-2.5,2.6.9,2.1,2.1,2.1,2.5-1.1,2.5-2.6Z"/>
          <path class="st0" d="M226.3,177.8l-.4,1.3h-.5l.3-1c-.5-.4-1.2-.5-1.8-.5-1.6,0-2.7,1.1-2.7,2.6s.9,2.1,2.4,2.1,1.3-.1,2.2-.6l.2.4c-1.1.5-1.8.7-2.5.7-1.7,0-2.9-1.1-2.9-2.6s1.4-3.1,3.3-3.1,1.8.3,2.5.8h0q0,0,0,0Z"/>
          <path class="st0" d="M228.3,180.1c0-1.8,1.3-3.1,3.1-3.1s2.7,1,2.7,2.6-1.3,3.1-3.1,3.1-2.7-1-2.7-2.6h0ZM233.4,179.6c0-1.2-.9-2.1-2.1-2.1s-2.5,1.1-2.5,2.6.9,2.1,2.1,2.1,2.5-1.1,2.5-2.6Z"/>
          <path class="st0" d="M237.3,177.6h-1.1v-.5h1.8l-.5,1.8c1.3-1.4,2-1.8,2.7-1.8s1.4.9,1.1,2l-.8,2.6c-.1.4,0,.6.3.6s.7-.2,1.3-.6l.2.4c-.9.5-1.3.7-1.7.7-.7,0-.9-.5-.8-1.3l.7-2.5c.3-.9,0-1.4-.7-1.4s-1.3.5-2.8,2l-.9,3.1h-.6l1.4-5h0Z"/>
          <path class="st0" d="M245.1,180.6l.9-3h-2v-.5h2.2l.4-1.6h.6l-.4,1.6h3.3v.5h-3.4l-.9,3.1c-.3,1,0,1.5.9,1.5s1.3-.2,2.5-.6v.4c-1.1.4-1.9.7-2.6.7-1.3,0-1.8-.8-1.4-2.1h0s0,0,0,0Z"/>
          <path class="st0" d="M252.4,177.1h2.9l-1.1,3.7c-.2.8,0,1.3.6,1.3s1.2-.3,2.7-1.1l.2.4c-1.7.9-2.3,1.2-2.9,1.2-1,0-1.5-.8-1.2-1.9l.9-3.1h-2.2v-.5c.1,0,.1,0,.1,0h0ZM254.6,175.2c0-.4.4-.7.8-.7s.6.3.6.6-.3.7-.7.7-.6-.3-.6-.6h0Z"/>
          <path class="st0" d="M260.8,177.6h-1.1v-.5h1.8l-.5,1.8c1.3-1.4,2-1.8,2.7-1.8s1.4.9,1.1,2l-.8,2.6c-.1.4,0,.6.3.6s.7-.2,1.3-.6l.2.4c-.9.5-1.3.7-1.7.7-.7,0-.9-.5-.8-1.3l.7-2.5c.3-.9,0-1.4-.7-1.4s-1.3.5-2.8,2l-.9,3.1h-.6l1.4-5h0Z"/>
          <path class="st0" d="M271.4,180.9c-1.3,1.4-1.9,1.8-2.7,1.8s-1.4-.9-1.1-2l.9-3.1h-1.1v-.5h1.8l-1,3.6c-.3.9,0,1.4.7,1.4s1.3-.5,2.7-2l.9-3.1h.6l-1.3,4.5c-.1.4,0,.6.3.6s.7-.2,1.3-.6l.2.4c-.9.5-1.3.7-1.7.7-.7,0-.9-.5-.8-1.3v-.5h.2Z"/>
          <path class="st0" d="M275.2,180.1c0-1.8,1.5-3.1,3.3-3.1s2.3.7,2.3,1.7-1,1.6-3,1.6-1.3,0-2.1-.1h0c0,1.3.9,2.2,2.3,2.2s1.4-.2,2.4-.6l.2.4c-1.1.5-1.8.7-2.7.7-1.7,0-2.8-1-2.8-2.6h0ZM275.9,179.6c.7,0,1.4.1,2,.1,1.6,0,2.5-.4,2.5-1.1s-.8-1.1-1.8-1.1-2.3.9-2.6,2.1h0Z"/>
          <path class="st0" d="M285.5,182.6c-.1,0-.3,0-.4,0-.4,0-.6-.3-.6-.6s.4-.9.9-.9.8.4.8.8c0,1.1-1.1,2.2-2.7,2.5v-.4c1-.3,1.8-.9,2.1-1.5h0Z"/>
          <path class="st0" d="M298.7,180.1c0-1.8,1.3-3.1,3.1-3.1s2.7,1,2.7,2.6-1.3,3.1-3.1,3.1-2.7-1-2.7-2.6ZM303.8,179.6c0-1.2-.9-2.1-2.1-2.1s-2.5,1.1-2.5,2.6.9,2.1,2.1,2.1,2.5-1.1,2.5-2.6Z"/>
          <path class="st0" d="M307.6,182.6l1.4-5h-2v-.5h2.7l-.5,1.9c1.6-1.5,2.3-2,3-2s.9.1,1.3.4l-.3.5c-.6-.3-.9-.4-1.1-.4-.6,0-1.3.4-3,2l-.9,3h-.6,0Z"/>
          <path class="st0" d="M322,180.6c0-2,1.5-3.6,3.5-3.6s1.4.2,1.9.7l.2-.6h.6l-1.3,4.5c-.1.4,0,.6.3.6s.7-.2,1.3-.6l.2.4c-.9.5-1.3.7-1.7.7-.6,0-.9-.4-.8-1.1-1.1.9-1.6,1.1-2.2,1.1-1.2,0-2-.9-2-2.2h0ZM324.1,182.2c.6,0,1.3-.3,2.3-1.2l.8-2.7c-.5-.5-1.1-.7-1.8-.7-1.6,0-2.8,1.3-2.8,3s.6,1.7,1.5,1.7h0Z"/>
          <path class="st0" d="M340.6,174.3l-1.1,3.8c.7-.7,1.4-1.1,2.2-1.1,1.3,0,2.1.9,2.1,2.3s-1.4,3.4-3.2,3.4-1.5-.4-2.1-1.1l-.3,1h-.6l2.2-7.8h-1.1v-.5h1.9ZM339.3,178.8l-.6,2.2c.5.8,1.2,1.2,2,1.2,1.3,0,2.5-1.3,2.5-2.8s-.6-1.9-1.6-1.9-1.3.4-2.2,1.3h0Z"/>
          <path class="st0" d="M346.7,182.6l1.4-5h-2v-.5h2.7l-.5,1.9c1.6-1.5,2.3-2,3-2s.9.1,1.3.4l-.3.5c-.6-.3-.9-.4-1.1-.4-.6,0-1.3.4-3,2l-.9,3h-.6,0Z"/>
          <path class="st0" d="M353.5,180.1c0-1.8,1.5-3.1,3.3-3.1s2.3.7,2.3,1.7-1,1.6-3,1.6-1.3,0-2.1-.1h0c0,1.3.9,2.2,2.3,2.2s1.4-.2,2.4-.6l.2.4c-1.1.5-1.8.7-2.7.7-1.7,0-2.8-1-2.8-2.6h0ZM354.1,179.6c.7,0,1.4.1,2,.1,1.6,0,2.5-.4,2.5-1.1s-.8-1.1-1.8-1.1-2.3.9-2.6,2.1h0Z"/>
          <path class="st0" d="M361.1,180.6c0-2,1.5-3.6,3.5-3.6s1.4.2,1.9.7l.2-.6h.6l-1.3,4.5c-.1.4,0,.6.3.6s.7-.2,1.3-.6l.2.4c-.9.5-1.3.7-1.7.7-.6,0-.9-.4-.8-1.1-1.1.9-1.6,1.1-2.2,1.1-1.2,0-2-.9-2-2.2h0ZM363.2,182.2c.6,0,1.3-.3,2.3-1.2l.8-2.7c-.5-.5-1.1-.7-1.8-.7-1.6,0-2.8,1.3-2.8,3s.6,1.7,1.5,1.7h0Z"/>
          <path class="st0" d="M371.2,174.8h-1v-.5h1.8l-1.8,6.2,2.7-2.7c.7-.6.9-.8,1.3-.8s.6,0,1.3.5l-.3.4c-.5-.4-.8-.4-1-.4s-.4,0-.9.6l-1.1,1,1.1,2.7c0,.2.2.3.4.3s.6-.1,1.3-.6l.2.4c-.9.5-1.3.7-1.6.7s-.7-.2-.9-.7l-.9-2.4-1.8,1.7-.4,1.3h-.6l2.2-7.8h-.1Z"/>
          <path class="st0" d="M385.4,177.1h2.9l-1.1,3.7c-.2.8,0,1.3.6,1.3s1.2-.3,2.7-1.1l.2.4c-1.7.9-2.3,1.2-2.9,1.2-1,0-1.5-.8-1.2-1.9l.9-3.1h-2.2v-.5c.1,0,.1,0,.1,0h0ZM387.6,175.2c0-.4.4-.7.8-.7s.6.3.6.6-.3.7-.7.7-.6-.3-.6-.6h0Z"/>
          <path class="st0" d="M393.8,177.6h-1.1v-.5h1.8l-.5,1.8c1.3-1.4,2-1.8,2.7-1.8s1.4.9,1.1,2l-.8,2.6c-.1.4,0,.6.3.6s.7-.2,1.3-.6l.2.4c-.9.5-1.3.7-1.7.7-.7,0-.9-.5-.8-1.3l.7-2.5c.3-.9,0-1.4-.7-1.4s-1.3.5-2.8,2l-.9,3.1h-.6l1.4-5h0Z"/>
          <path class="st0" d="M408,180.6c0-2,1.5-3.6,3.5-3.6s1.4.2,1.9.7l.2-.6h.6l-1.3,4.5c-.1.4,0,.6.3.6s.7-.2,1.3-.6l.2.4c-.9.5-1.3.7-1.7.7-.6,0-.9-.4-.8-1.1-1.1.9-1.6,1.1-2.2,1.1-1.2,0-2-.9-2-2.2h0ZM410.2,182.2c.6,0,1.3-.3,2.3-1.2l.8-2.7c-.5-.5-1.1-.7-1.8-.7-1.6,0-2.8,1.3-2.8,3s.6,1.7,1.5,1.7h0Z"/>
          <path class="st0" d="M429.6,181.4c-1.8,1-2.4,1.3-3.1,1.3-1,0-1.4-.8-1.1-1.9l1.7-5.9h-2.2v-.5h3l-1.9,6.6c-.2.8,0,1.3.6,1.3s1.2-.3,2.8-1.2l.2.4h0q0,0,0,0Z"/>
          <path class="st0" d="M432.3,177.1h2.9l-1.1,3.7c-.2.8,0,1.3.6,1.3s1.2-.3,2.7-1.1l.2.4c-1.7.9-2.3,1.2-2.9,1.2-1,0-1.5-.8-1.2-1.9l.9-3.1h-2.2v-.5c.1,0,.1,0,.1,0h0ZM434.5,175.2c0-.4.4-.7.8-.7s.6.3.6.6-.3.7-.7.7-.6-.3-.6-.6h0Z"/>
          <path class="st0" d="M444.7,178c-.4-.3-1.3-.5-2.1-.5s-1.6.4-1.6,1,.4.7,1,.9l1.5.4c.9.2,1.3.7,1.3,1.3,0,1-1,1.7-2.5,1.7s-2.1-.3-2.7-.8l.3-1.1h.5l-.2.8c.5.4,1.3.6,2.3.6s1.8-.4,1.8-1.1-.3-.7-.9-.8l-1.5-.4c-.9-.2-1.3-.7-1.3-1.3,0-1,.9-1.6,2.3-1.6s2,.3,2.6.7l-.3,1.2h-.5l.2-.9h0q0,0,0,0Z"/>
          <path class="st0" d="M448.5,180.6l.9-3h-2v-.5h2.2l.4-1.6h.6l-.4,1.6h3.3v.5h-3.4l-.9,3.1c-.3,1,0,1.5.9,1.5s1.3-.2,2.5-.6v.4c-1.1.4-1.9.7-2.6.7-1.3,0-1.8-.8-1.4-2.1h0s0,0,0,0Z"/>
          <path class="st0" d="M463,180.1c0-1.8,1.3-3.1,3.1-3.1s2.7,1,2.7,2.6-1.3,3.1-3.1,3.1-2.7-1-2.7-2.6ZM468.1,179.6c0-1.2-.9-2.1-2.1-2.1s-2.5,1.1-2.5,2.6.9,2.1,2.1,2.1,2.5-1.1,2.5-2.6Z"/>
          <path class="st0" d="M473.8,177.1l.3-1.1c.4-1.3,1-1.8,2.1-1.8s1.1.2,2.1.6l-.3.5c-.9-.4-1.4-.5-1.8-.5-.8,0-1.3.4-1.5,1.4l-.3,1h2.5v.5h-2.6l-1.8,6.1c-.3,1.2-.9,1.6-1.8,1.6s-1-.1-1.8-.4v-.5c.9.3,1.4.4,1.8.4.6,0,.9-.3,1.2-1.3l1.7-5.9h-1.9v-.5h2.1s0,0,0,0Z"/>
          <path class="st0" d="M221.5,198.2l1.4-5h-2v-.5h2.7l-.5,1.9c1.6-1.5,2.3-2,3-2s.9.1,1.3.4l-.3.5c-.6-.3-.9-.4-1.1-.4-.6,0-1.3.4-3,2l-.9,3h-.6Z"/>
          <path class="st0" d="M228.3,195.8c0-1.8,1.5-3.1,3.3-3.1s2.3.7,2.3,1.7-1,1.6-3,1.6-1.3,0-2.1-.1h0c0,1.3.9,2.2,2.3,2.2s1.4-.2,2.4-.6l.2.4c-1.1.5-1.8.7-2.7.7-1.7,0-2.8-1-2.8-2.6h0ZM229,195.2c.7,0,1.4.1,2,.1,1.6,0,2.5-.4,2.5-1.1s-.8-1.1-1.8-1.1-2.3.9-2.6,2.1h0Z"/>
          <path class="st0" d="M241.8,197c-1.8,1-2.4,1.3-3.1,1.3-1,0-1.4-.8-1.1-1.9l1.7-5.9h-2.2v-.5h3l-1.9,6.6c-.2.8,0,1.3.6,1.3s1.2-.3,2.8-1.2l.2.4h0q0,0,0,0Z"/>
          <path class="st0" d="M243.7,196.2c0-2,1.5-3.6,3.5-3.6s1.4.2,1.9.7l.2-.6h.6l-1.3,4.5c-.1.4,0,.6.3.6s.7-.2,1.3-.6l.2.4c-.9.5-1.3.7-1.7.7-.6,0-.9-.4-.8-1.1-1.1.9-1.6,1.1-2.2,1.1-1.2,0-2-.9-2-2.2h0ZM245.9,197.8c.6,0,1.3-.3,2.3-1.2l.8-2.7c-.5-.5-1.1-.7-1.8-.7-1.6,0-2.8,1.3-2.8,3s.6,1.7,1.5,1.7h0Z"/>
          <path class="st0" d="M252.9,196.3l.9-3h-2v-.5h2.2l.4-1.6h.6l-.4,1.6h3.3v.5h-3.4l-.9,3.1c-.3,1,0,1.5.9,1.5s1.3-.2,2.5-.6v.4c-1.1.4-1.9.7-2.6.7-1.3,0-1.8-.8-1.4-2.1h0s0,0,0,0Z"/>
          <path class="st0" d="M259.6,195.8c0-1.8,1.5-3.1,3.3-3.1s2.3.7,2.3,1.7-1,1.6-3,1.6-1.3,0-2.1-.1h0c0,1.3.9,2.2,2.3,2.2s1.4-.2,2.4-.6l.2.4c-1.1.5-1.8.7-2.7.7-1.7,0-2.8-1-2.8-2.6h0ZM260.3,195.2c.7,0,1.4.1,2,.1,1.6,0,2.5-.4,2.5-1.1s-.8-1.1-1.8-1.1-2.3.9-2.6,2.1h0Z"/>
          <path class="st0" d="M267.2,196.2c0-2,1.5-3.6,3.5-3.6s1.4.2,1.9.7l.9-2.9h-1.5v-.5h2.2l-2.1,7.2c-.1.4,0,.6.3.6s.7-.2,1.3-.6l.2.4c-.9.5-1.3.7-1.7.7-.6,0-.9-.4-.8-1.1-1.1.9-1.6,1.1-2.2,1.1-1.2,0-2-.9-2-2.2h0ZM269.4,197.8c.6,0,1.3-.3,2.3-1.2l.8-2.7c-.5-.5-1.1-.7-1.8-.7-1.6,0-2.8,1.3-2.8,3s.6,1.7,1.5,1.7h0Z"/>
          <path class="st0" d="M284.2,196.3l.9-3h-2v-.5h2.2l.4-1.6h.6l-.4,1.6h3.3v.5h-3.4l-.9,3.1c-.3,1,0,1.5.9,1.5s1.3-.2,2.5-.6v.4c-1.1.4-1.9.7-2.6.7-1.3,0-1.8-.8-1.4-2.1h0s0,0,0,0Z"/>
          <path class="st0" d="M292.9,190.5h-1v-.5h1.8l-1.3,4.6c1.3-1.4,2-1.8,2.7-1.8s1.4.9,1.1,2l-.8,2.6c-.1.4,0,.6.3.6s.7-.2,1.3-.6l.2.4c-.9.5-1.3.7-1.7.7-.7,0-.9-.5-.8-1.3l.7-2.5c.3-.9,0-1.4-.7-1.4s-1.3.5-2.8,2l-.9,3.1h-.6l2.2-7.8h0s0,0,0,0Z"/>
          <path class="st0" d="M299.3,192.7h2.9l-1.1,3.7c-.2.8,0,1.3.6,1.3s1.2-.3,2.7-1.1l.2.4c-1.7.9-2.3,1.2-2.9,1.2-1,0-1.5-.8-1.2-1.9l.9-3.1h-2.2v-.5c.1,0,.1,0,.1,0h0ZM301.5,190.8c0-.4.4-.7.8-.7s.6.3.6.6-.3.7-.7.7-.6-.3-.6-.6h0Z"/>
          <path class="st0" d="M307.8,193.2h-1.1v-.5h1.8l-.5,1.8c1.3-1.4,2-1.8,2.7-1.8s1.4.9,1.1,2l-.8,2.6c-.1.4,0,.6.3.6s.7-.2,1.3-.6l.2.4c-.9.5-1.3.7-1.7.7-.7,0-.9-.5-.8-1.3l.7-2.5c.3-.9,0-1.4-.7-1.4s-1.3.5-2.8,2l-.9,3.1h-.6l1.4-5h0Z"/>
          <path class="st0" d="M314.3,196.2c0-2,1.5-3.6,3.5-3.6s1.4.2,1.9.7l.2-.6h.6l-1.8,6.2c-.4,1.3-1.2,2-2.3,2s-1.4-.2-2.5-.5l.2-.5c1.1.4,1.7.5,2.3.5.9,0,1.4-.5,1.8-1.6l.4-1.6c-1.1.9-1.6,1.1-2.2,1.1-1.2,0-2-.9-2-2.2h0ZM316.4,197.8c.6,0,1.3-.3,2.3-1.2l.8-2.7c-.5-.5-1.1-.7-1.8-.7-1.6,0-2.8,1.3-2.8,3s.6,1.7,1.5,1.7h0Z"/>
          <path class="st0" d="M327.4,193.6c-.4-.3-1.3-.5-2.1-.5s-1.6.4-1.6,1,.4.7,1,.9l1.5.4c.9.2,1.3.7,1.3,1.3,0,1-1,1.7-2.5,1.7s-2.1-.3-2.7-.8l.3-1.1h.5l-.2.8c.5.4,1.3.6,2.3.6s1.8-.4,1.8-1.1-.3-.7-.9-.8l-1.5-.4c-.9-.2-1.3-.7-1.3-1.3,0-1,.9-1.6,2.3-1.6s2,.3,2.6.7l-.3,1.2h-.5l.2-.9h0q0,0,0,0Z"/>
          <path class="st0" d="M331.5,197.6c0-.4.4-.8.8-.8s.7.3.7.7-.4.8-.8.8-.7-.3-.7-.7h0Z"/>
        </g>
        <path class="st0" d="M103.3,26h3.6s.4,4-3.6,4v.8s5.3.9,5.3-4.8v-4.5h-5.3v4.5h0Z"/>
        <polygon class="st0" points="125.7 49.1 123 51.9 125.7 54.7 127.1 53.3 128.5 54.7 125.7 57.5 124.3 57.5 124.3 58.8 125.7 58.8 129.8 54.7 128.5 51.9 125.7 49.1"/>
        <path class="st0" d="M162,68.3c0-1.8-1.5-3.2-3.4-3.2s-3.4,1.5-3.4,3.4,1.3,3.1,2.9,3.3c-.7.7-1.6,1.1-2.5,1.2v.7c2.6.3,4.9-1.3,5.9-3.6.3-.5.4-1.1.4-1.7s0,0,0,0h0Z"/>
        <polygon class="st0" points="206.5 89.7 204.4 89.7 204.4 92.4 201.6 97.1 203.4 98.1 206.5 92.9 206.5 89.7"/>
        <path class="st0" d="M129.4,27.4h0c.2,1.3.1,2.6-.2,3.9-.5,1.9-1.4,3.7-2.8,5.2l.8.8c.7-.7,1.3-1.4,1.8-2.2,1-1.4,1.7-3.1,2.2-4.8,0-.4.2-.9.3-1.3.2-.7.3-1.5.4-2.2h-1.9c-.4,0-.6.3-.6.7,0,0,0,0,0,0Z"/>
        <path class="st0" d="M176.2,49.9s0,0,0-.1h-.9c-1.4-.1-2.8,0-4.3,0,0,0-.2,0-.2,0,0,0,0,.1,0,.2,0,1.3,0,2.6-.1,3.9v.2s0,0,.2.1c1,.4,2.1.1,3.2.3,0,0,0,.2,0,.3-.6,1.2-1.5,2.2-2.7,2.8-.2.1-.5.3-.6.5.4.2.9.4,1.3.5,0,0,.2,0,.2,0,0,0,0,0,.2,0,1.4-.9,2.7-2.2,3.6-3.6,0,0,.1-.2.1-.3v-.3c0-.3,0-.6,0-.9,0-1.3.2-2.4,0-3.6,0,0,0,0,0,0Z"/>
      </g>
    </g>
  </g>
</svg>