<?xml version="1.0" encoding="UTF-8"?>
<svg id="Layer_2" data-name="Layer 2" xmlns="http://www.w3.org/2000/svg" viewBox="0 0 1112.1 447">
  <defs>
    <style>
      .cls-1 {
        fill: #fff;
      }
    </style>
  </defs>
  <g id="Layer_1-2" data-name="Layer 1">
    <g id="Layer_1-3" data-name="Layer 1">
      <g>
        <g>
          <path class="cls-1" d="M235.4,167.7h.4c2.1,0,4.1,1,5.4,2.7,1.8,2.3,2,6.3.4,8.8-.5.8-1.1,1.2-1.8,1.8-1.3.9-2.9,1.6-4.6,1.4h0v-2c-1.7,0-3.3-.7-4.5-1.8-2.3-2.1-2.7-5.6-.8-8.1s3.3-2.6,5.4-2.7l.1-.1Z"/>
          <path class="cls-1" d="M368.4,285l1.9,5.1v2.8l-7.9,9.1h0l-.6.1-1.6-1.6h0l6-8.7-1.6.5-.4-.4-1.4-5.6.9-1.2,3.1-1.2,1.5,1.3.1-.2Z"/>
          <polygon class="cls-1" points="562.7 175 562.7 182.8 566.8 182.8 566.8 190.3 559 190.3 559 186.8 562.7 186.8 562.7 182.8 554.9 182.8 554.9 175 562.7 175"/>
          <path class="cls-1" d="M345,210.2h.7c4.3.3,7.3,4.1,7.2,8.4,0,2.5-1.3,4.7-3.4,6.1-4.3,3-10.6.9-12.1-4.1-.2-.5-.3-1.2-.4-1.8s.1-.6.6-.6h1c.3,0,.4,0,.5.1.2.2.2.4.2.6.6,3.7,4.4,6,8,4.6s3.8-3.5,3.5-6,0-.5-.1-.7c-.1-.3-.3,0-.3.2-.1.3-.2.6-.3.9-1.6,3.8-7,4.4-9.4,1-1.3-1.8-1.4-4.1-.2-6s2.8-2.6,4.8-2.7h-.3Z"/>
        </g>
        <g>
          <path class="cls-1" d="M.5,17.2h3.1L7.7,2.8H2.3l-1,3.6H0L1.4,1.6h14.9l-1.4,4.8h-1.3l1-3.6h-5.4l-4.1,14.4h3.1l-.3,1.2H.2l.3-1.2h0Z"/>
          <path class="cls-1" d="M21.2,1.1h-2.3l.3-1.1h3.7l-2.9,10.2c3-3.2,4.4-4.1,6.1-4.1s3.2,1.9,2.5,4.4l-1.7,5.7c-.3.9,0,1.4.6,1.4s1.5-.4,2.9-1.3l.5.9c-2,1.2-2.8,1.6-3.7,1.6-1.5,0-2.1-1.1-1.7-2.8l1.6-5.5c.6-2,0-3.2-1.5-3.2s-2.9,1.1-6.2,4.4l-1.9,6.8h-1.3L21.2,1.2v-.1Z"/>
          <path class="cls-1" d="M34.1,12.9c0-3.9,3.3-7,7.4-7s5.2,1.6,5.2,3.7-2.3,3.5-6.6,3.5-3-.1-4.7-.3v.2c0,2.8,2,4.6,5.1,4.6s3.1-.4,5.3-1.4l.5,1c-2.4,1.1-4,1.5-5.9,1.5-3.7,0-6.3-2.3-6.3-5.8ZM35.6,11.7c1.6.2,3.1.3,4.4.3,3.5,0,5.5-.9,5.5-2.4s-1.7-2.5-4-2.5-5.3,1.9-5.8,4.6h-.1Z"/>
          <path class="cls-1" d="M81.9,7.8l-.8,3h-1.2l.7-2.3c-1.1-.8-2.6-1.2-4.1-1.2-3.5,0-6.1,2.5-6.1,5.8s2.1,4.6,5.3,4.6,2.8-.3,5-1.3l.5,1c-2.5,1.1-3.9,1.5-5.6,1.5-3.8,0-6.5-2.4-6.5-5.8s3.2-6.9,7.4-6.9,3.9.6,5.5,1.8l-.1-.2Z"/>
          <path class="cls-1" d="M86.3,13c0-3.9,3-7,6.9-7s5.9,2.3,5.9,5.7-3,7-6.9,7-5.9-2.3-5.9-5.7ZM97.8,11.8c0-2.7-1.9-4.6-4.6-4.6s-5.5,2.5-5.5,5.7,1.9,4.6,4.6,4.6,5.5-2.5,5.5-5.7Z"/>
          <path class="cls-1" d="M105.3,7.4h-1.6l.3-1.1h2.9l-1,3.4c1.9-2.8,2.9-3.6,4.1-3.6s2.3,1.3,1.9,3.2h0c1.7-2.4,2.7-3.2,3.8-3.2s2.3,1.4,1.7,3.5l-2.1,7c-.2.6,0,.9.3.9s.8-.2,2.1-.9l.4.9c-1.6.9-2.3,1.2-2.9,1.2-1.1,0-1.5-.8-1.1-2.2l2.1-7c.4-1.3,0-2.2-.8-2.2s-1.8.9-4,3.8l-2.2,7.5h-1.3l2.7-9.1c.4-1.4,0-2.2-.9-2.2s-1.8.8-4.3,4.2l-2.1,7h-1.3l3.2-11.1h.1Z"/>
          <path class="cls-1" d="M122.7,7.4h-1.6l.3-1.1h2.9l-1,3.4c1.9-2.8,2.9-3.6,4.1-3.6s2.3,1.3,1.9,3.2h0c1.7-2.4,2.7-3.2,3.8-3.2s2.3,1.4,1.7,3.5l-2.1,7c-.2.6,0,.9.3.9s.8-.2,2.1-.9l.4.9c-1.6.9-2.3,1.2-2.9,1.2-1.1,0-1.5-.8-1.1-2.2l2.1-7c.4-1.3,0-2.2-.8-2.2s-1.8.9-4,3.8l-2.2,7.5h-1.3l2.7-9.1c.4-1.4,0-2.2-.9-2.2s-1.8.8-4.3,4.2l-2.1,7h-1.3l3.2-11.1h.1Z"/>
          <path class="cls-1" d="M138.1,13.9c0-4.5,3.4-7.9,7.7-7.9s3.1.5,4.2,1.5l.4-1.3h1.3l-2.8,9.9c-.3.9,0,1.4.6,1.4s1.5-.4,2.9-1.3l.5.9c-2,1.2-2.8,1.6-3.7,1.6-1.4,0-2-1-1.7-2.5-2.4,1.9-3.5,2.5-4.9,2.5-2.7,0-4.5-2-4.5-4.8h0ZM142.8,17.5c1.4,0,2.8-.7,5.1-2.7l1.7-6c-1.1-1.1-2.4-1.6-4-1.6-3.5,0-6.2,2.9-6.2,6.7s1.4,3.7,3.4,3.7v-.1Z"/>
          <path class="cls-1" d="M179.5,1.6h7.1l-.3,1.2h-5.8l-5.2,18.2h5.8l-.3,1.2h-7.1l5.9-20.6h-.1Z"/>
          <path class="cls-1" d="M212.7,18.8c-.8.4-1.7.5-2.7.5-2.4,0-4.3-1.9-4.3-4.2s2.7-5.8,5.9-5.8,5.1,2.3,5.1,5.6c0,7.6-7.7,14.8-18.3,17.1l-.6-2.6c7.4-1.9,13.2-6.1,14.8-10.5l.1-.1Z"/>
          <path class="cls-1" d="M251.3,22.2h-7.1l.3-1.2h5.8l5.2-18.2h-5.8l.3-1.2h7.1l-5.9,20.6h.1Z"/>
          <path class="cls-1" d="M501.9,256.6c-1-.6-2.9-1.1-4.6-1.1s-3.5.9-3.5,2.3.8,1.5,2.2,1.9l3.4.9c1.9.5,2.9,1.5,2.9,2.8,0,2.3-2.2,3.8-5.5,3.8-2.3,0-4.6-.7-6.1-1.8l.6-2.4h1.2l-.5,1.8c1.2.8,3,1.3,5.1,1.3s3.9-1,3.9-2.5-.7-1.5-2.1-1.8l-3.4-.8c-1.9-.5-3-1.5-3-2.8,0-2.2,2-3.6,5.1-3.6s4.4.6,5.7,1.5l-.7,2.6h-1.2l.5-1.9v-.2Z"/>
          <path class="cls-1" d="M509.1,254.7h6.4l-2.4,8.3c-.5,1.8,0,2.9,1.4,2.9s2.6-.6,5.9-2.5l.5,1c-3.7,2.1-5.1,2.7-6.5,2.7-2.3,0-3.3-1.7-2.6-4.2l2-7h-5l.3-1.1v-.1ZM514.1,250.4c0-.9.8-1.6,1.7-1.6s1.4.6,1.4,1.4-.7,1.6-1.6,1.6-1.4-.6-1.4-1.4h-.1Z"/>
          <path class="cls-1" d="M525,262.4c0-4.5,3.4-7.9,7.7-7.9s3.1.5,4.2,1.5l.4-1.3h1.3l-3.9,13.9c-.8,2.9-2.6,4.4-5.2,4.4s-3.1-.4-5.5-1.2l.5-1.2c2.5.9,3.7,1.2,5.1,1.2,2,0,3.2-1.1,3.9-3.5l1-3.6c-2.4,1.9-3.5,2.5-4.9,2.5-2.7,0-4.5-2-4.5-4.8h-.1ZM529.8,266c1.4,0,2.8-.7,5.1-2.7l1.7-6c-1.1-1.1-2.4-1.6-4-1.6-3.5,0-6.2,2.9-6.2,6.7s1.4,3.7,3.4,3.7v-.1Z"/>
          <path class="cls-1" d="M545.3,255.8h-2.4l.3-1.1h3.7l-1.1,3.9c3-3.2,4.4-4.1,6.1-4.1s3.2,1.9,2.5,4.4l-1.7,5.7c-.3.9,0,1.4.6,1.4s1.5-.4,2.9-1.3l.5.9c-2,1.2-2.8,1.6-3.7,1.6-1.5,0-2.1-1.1-1.7-2.8l1.6-5.5c.6-2,0-3.2-1.5-3.2s-2.9,1.1-6.2,4.4l-1.9,6.8h-1.3l3.2-11.1h.1Z"/>
          <path class="cls-1" d="M559.5,262.4c0-4.5,3.4-7.9,7.7-7.9s3.1.5,4.2,1.5l.4-1.3h1.3l-2.8,9.9c-.3.9,0,1.4.6,1.4s1.5-.4,2.9-1.3l.5.9c-2,1.2-2.8,1.6-3.7,1.6-1.4,0-2-1-1.7-2.5-2.4,1.9-3.5,2.5-4.9,2.5-2.7,0-4.5-2-4.5-4.8h0ZM564.3,266c1.4,0,2.8-.7,5.1-2.7l1.7-6c-1.1-1.1-2.4-1.6-4-1.6-3.5,0-6.2,2.9-6.2,6.7s1.4,3.7,3.4,3.7v-.1Z"/>
          <path class="cls-1" d="M590.1,264.2c-4,2.3-5.4,2.8-6.8,2.8-2.3,0-3.2-1.7-2.5-4.2l3.8-13.2h-5l.3-1.1h6.4l-4.2,14.6c-.5,1.8,0,2.9,1.4,2.9s2.6-.6,6.2-2.6l.5,1-.1-.2Z"/>
          <path class="cls-1" d="M606.3,256.6c-1-.6-2.9-1.1-4.6-1.1s-3.5.9-3.5,2.3.8,1.5,2.2,1.9l3.4.9c1.9.5,2.9,1.5,2.9,2.8,0,2.3-2.2,3.8-5.5,3.8-2.3,0-4.6-.7-6.1-1.8l.6-2.4h1.2l-.5,1.8c1.2.8,3,1.3,5.1,1.3s3.9-1,3.9-2.5-.7-1.5-2.1-1.8l-3.4-.8c-1.9-.5-3-1.5-3-2.8,0-2.2,2-3.6,5.1-3.6s4.4.6,5.7,1.5l-.7,2.6h-1.2l.5-1.9v-.2Z"/>
          <path class="cls-1" d="M632.1,262.5l1.9-6.7h-4.5l.3-1.1h4.5l1-3.6h1.3l-1,3.6h7.3l-.3,1.1h-7.3l-1.9,6.8c-.6,2.3,0,3.4,2.1,3.4,1.1,0,2.8-.4,5.6-1.3l.3,1c-2.8,1-4.6,1.5-6.1,1.5-2.8,0-4-1.7-3.2-4.6v-.1Z"/>
          <path class="cls-1" d="M651.5,249.6h-2.3l.3-1.1h3.7l-2.9,10.2c3-3.2,4.4-4.1,6.1-4.1s3.2,1.9,2.5,4.4l-1.7,5.7c-.3.9,0,1.4.6,1.4s1.5-.4,2.9-1.3l.5.9c-2,1.2-2.8,1.6-3.7,1.6-1.5,0-2.1-1.1-1.7-2.8l1.6-5.5c.6-2,0-3.2-1.5-3.2s-2.9,1.1-6.2,4.4l-1.9,6.8h-1.3l5-17.3v-.1Z"/>
          <path class="cls-1" d="M664.4,261.4c0-3.9,3.3-7,7.4-7s5.2,1.6,5.2,3.7-2.3,3.5-6.6,3.5-3-.1-4.7-.3v.2c0,2.8,2,4.6,5.1,4.6s3.1-.4,5.3-1.4l.5,1c-2.4,1.1-4,1.5-5.9,1.5-3.7,0-6.3-2.3-6.3-5.8h0ZM665.9,260.2c1.6.2,3.1.3,4.4.3,3.5,0,5.5-.9,5.5-2.4s-1.7-2.5-4-2.5-5.3,1.9-5.8,4.6h-.1Z"/>
          <path class="cls-1" d="M700.5,254.7h6.4l-2.4,8.3c-.5,1.8,0,2.9,1.4,2.9s2.6-.6,5.9-2.5l.5,1c-3.7,2.1-5.1,2.7-6.5,2.7-2.3,0-3.3-1.7-2.6-4.2l2-7h-5l.3-1.1v-.1ZM705.5,250.4c0-.9.8-1.6,1.7-1.6s1.4.6,1.4,1.4-.7,1.6-1.6,1.6-1.4-.6-1.4-1.4h-.1Z"/>
          <path class="cls-1" d="M719.3,255.8h-2.4l.3-1.1h3.7l-1.1,3.9c3-3.2,4.4-4.1,6.1-4.1s3.2,1.9,2.5,4.4l-1.7,5.7c-.3.9,0,1.4.6,1.4s1.5-.4,2.9-1.3l.5.9c-2,1.2-2.8,1.6-3.7,1.6-1.5,0-2.1-1.1-1.7-2.8l1.6-5.5c.6-2,0-3.2-1.5-3.2s-2.9,1.1-6.2,4.4l-1.9,6.8h-1.3l3.2-11.1h.1Z"/>
          <path class="cls-1" d="M745.6,259l-.4,1.2h-9.5l.4-1.2h9.5Z"/>
          <path class="cls-1" d="M757.5,248.5l-2.4,8.4c1.6-1.6,3.2-2.4,4.8-2.4,2.8,0,4.7,2.1,4.7,5.2s-3.2,7.5-7.1,7.5-3.4-.9-4.7-2.4l-.6,2.2h-1.3l4.9-17.3h-2.5l.3-1.1h3.8l.1-.1ZM754.6,258.5l-1.4,4.8c1.1,1.7,2.6,2.6,4.4,2.6,3,0,5.6-2.8,5.6-6.2s-1.4-4.2-3.6-4.2-3,.8-5,2.9v.1Z"/>
          <path class="cls-1" d="M768.8,261.4c0-3.9,3.3-7,7.4-7s5.2,1.6,5.2,3.7-2.3,3.5-6.6,3.5-3-.1-4.7-.3v.2c0,2.8,2,4.6,5.1,4.6s3.1-.4,5.3-1.4l.5,1c-2.4,1.1-4,1.5-5.9,1.5-3.7,0-6.3-2.3-6.3-5.8h0ZM770.3,260.2c1.6.2,3.1.3,4.4.3,3.5,0,5.5-.9,5.5-2.4s-1.7-2.5-4-2.5-5.3,1.9-5.8,4.6h-.1Z"/>
          <path class="cls-1" d="M788.7,262.5l1.9-6.7h-4.5l.3-1.1h4.5l1-3.6h1.3l-1,3.6h7.3l-.3,1.1h-7.3l-1.9,6.8c-.6,2.3,0,3.4,2.1,3.4,1.1,0,2.8-.4,5.6-1.3l.3,1c-2.8,1-4.6,1.5-6.1,1.5-2.8,0-4-1.7-3.2-4.6v-.1Z"/>
          <path class="cls-1" d="M805.4,255.8h-2l.3-1.1h3.2l-2.8,9.5c-.4,1.2-.2,1.9.6,1.9s2.7-1.7,4.8-4.6l1.2-4.1h1.2l-1.9,6.7c-.4,1.4-.2,2,.7,2,2.3,0,5.7-5.1,5.7-8.5s-.2-1.6-.9-3l1.1-.5c.7,1.4,1,2.4,1,3.4,0,4.1-4.1,9.7-7,9.7s-2.3-1.2-1.7-3.4v-.2c-1.8,2.3-3.4,3.6-4.5,3.6s-1.9-1.2-1.4-3.2l2.3-8.1.1-.1Z"/>
          <path class="cls-1" d="M821,261.4c0-3.9,3.3-7,7.4-7s5.2,1.6,5.2,3.7-2.3,3.5-6.6,3.5-3-.1-4.7-.3v.2c0,2.8,2,4.6,5.1,4.6s3.1-.4,5.3-1.4l.5,1c-2.4,1.1-4,1.5-5.9,1.5-3.7,0-6.3-2.3-6.3-5.8h0ZM822.5,260.2c1.6.2,3.1.3,4.4.3,3.5,0,5.5-.9,5.5-2.4s-1.7-2.5-4-2.5-5.2,1.9-5.8,4.6h-.1Z"/>
          <path class="cls-1" d="M838.4,261.4c0-3.9,3.3-7,7.4-7s5.2,1.6,5.2,3.7-2.3,3.5-6.6,3.5-3-.1-4.7-.3v.2c0,2.8,2,4.6,5.1,4.6s3.1-.4,5.3-1.4l.5,1c-2.4,1.1-4,1.5-5.9,1.5-3.7,0-6.3-2.3-6.3-5.8h0ZM839.9,260.2c1.6.2,3.1.3,4.4.3,3.5,0,5.5-.9,5.5-2.4s-1.7-2.5-4-2.5-5.3,1.9-5.8,4.6h-.1Z"/>
          <path class="cls-1" d="M858.5,255.8h-2.4l.3-1.1h3.7l-1.1,3.9c3-3.2,4.4-4.1,6.1-4.1s3.2,1.9,2.5,4.4l-1.7,5.7c-.3.9,0,1.4.6,1.4s1.5-.4,2.9-1.3l.5.9c-2,1.2-2.8,1.6-3.7,1.6-1.5,0-2.1-1.1-1.7-2.8l1.6-5.5c.6-2,0-3.2-1.5-3.2s-2.9,1.1-6.2,4.4l-1.9,6.8h-1.3l3.2-11.1h.1Z"/>
          <path class="cls-1" d="M878.7,267c-.3.1-.6.2-.9.2-.8,0-1.4-.6-1.4-1.4s.9-1.9,1.9-1.9,1.7.8,1.7,1.8c0,2.4-2.5,4.8-5.9,5.5l-.2-.8c2.4-.6,4.3-2,4.8-3.4h0Z"/>
          <path class="cls-1" d="M910.7,255.8h-2.4l.3-1.1h3.7l-1.1,3.9c3-3.2,4.4-4.1,6.1-4.1s3.2,1.9,2.5,4.4l-1.7,5.7c-.3.9,0,1.4.6,1.4s1.5-.4,2.9-1.3l.5.9c-2,1.2-2.8,1.6-3.7,1.6-1.5,0-2.1-1.1-1.7-2.8l1.6-5.5c.6-2,0-3.2-1.5-3.2s-2.9,1.1-6.2,4.4l-1.9,6.8h-1.3l3.2-11.1h.1Z"/>
          <path class="cls-1" d="M925.3,261.4c0-3.9,3-7,6.9-7s5.9,2.3,5.9,5.7-3,7-6.9,7-5.9-2.3-5.9-5.7ZM936.8,260.2c0-2.7-1.9-4.6-4.6-4.6s-5.5,2.5-5.5,5.7,1.9,4.6,4.6,4.6,5.5-2.5,5.5-5.7Z"/>
          <path class="cls-1" d="M945.3,262.5l1.9-6.7h-4.5l.3-1.1h4.5l1-3.6h1.3l-1,3.6h7.3l-.3,1.1h-7.3l-1.9,6.8c-.6,2.3,0,3.4,2.1,3.4,1.1,0,2.8-.4,5.6-1.3l.3,1c-2.8,1-4.6,1.5-6.1,1.5-2.8,0-4-1.7-3.2-4.6v-.1Z"/>
          <path class="cls-1" d="M977.4,262.4c0-4.5,3.4-7.9,7.7-7.9s3.1.5,4.2,1.5l.4-1.3h1.3l-4.8,16.9h2.6l-.3,1.1h-6.6l.3-1.1h2.6l2-6.9c-2.4,1.9-3.5,2.5-4.9,2.5-2.7,0-4.5-2-4.5-4.8h0ZM982.2,266c1.4,0,2.8-.7,5.1-2.7l1.7-6c-1.1-1.1-2.4-1.6-4-1.6-3.5,0-6.2,2.9-6.2,6.7s1.4,3.7,3.4,3.7v-.1Z"/>
          <path class="cls-1" d="M1003.9,263.1c-2.9,3.1-4.3,4-6,4s-3.2-1.9-2.5-4.4l2-6.9h-2.4l.3-1.1h3.7l-2.3,8c-.6,2,0,3.2,1.5,3.2s2.9-1.1,6.1-4.4l2-6.9h1.3l-2.8,9.9c-.3.9,0,1.4.6,1.4s1.5-.4,2.9-1.3l.5.9c-2,1.2-2.8,1.6-3.7,1.6-1.5,0-2.1-1.1-1.7-2.8l.3-1.2h.2Z"/>
          <path class="cls-1" d="M1013.7,254.7h6.4l-2.4,8.3c-.5,1.8,0,2.9,1.4,2.9s2.6-.6,5.9-2.5l.5,1c-3.7,2.1-5.1,2.7-6.5,2.7-2.3,0-3.3-1.7-2.6-4.2l2-7h-5l.3-1.1v-.1ZM1018.7,250.4c0-.9.8-1.6,1.7-1.6s1.4.6,1.4,1.4-.7,1.6-1.6,1.6-1.4-.6-1.4-1.4h-.1Z"/>
          <path class="cls-1" d="M1032.3,262.5l1.9-6.7h-4.5l.3-1.1h4.5l1-3.6h1.3l-1,3.6h7.3l-.3,1.1h-7.3l-1.9,6.8c-.6,2.3,0,3.4,2.1,3.4,1.1,0,2.8-.4,5.6-1.3l.3,1c-2.8,1-4.6,1.5-6.1,1.5-2.8,0-4-1.7-3.2-4.6v-.1Z"/>
          <path class="cls-1" d="M1047.2,261.4c0-3.9,3.3-7,7.4-7s5.2,1.6,5.2,3.7-2.3,3.5-6.6,3.5-3-.1-4.7-.3v.2c0,2.8,2,4.6,5.1,4.6s3.1-.4,5.3-1.4l.5,1c-2.4,1.1-4,1.5-5.9,1.5-3.7,0-6.3-2.3-6.3-5.8h0ZM1048.7,260.2c1.6.2,3.1.3,4.4.3,3.5,0,5.5-.9,5.5-2.4s-1.7-2.5-4-2.5-5.2,1.9-5.8,4.6h-.1Z"/>
          <path class="cls-1" d="M492.9,297.3l1.9-6.7h-4.5l.3-1.1h4.5l1-3.6h1.3l-1,3.6h7.3l-.3,1.1h-7.3l-1.9,6.8c-.6,2.3,0,3.4,2.1,3.4,1.1,0,2.8-.4,5.6-1.3l.3,1c-2.8,1-4.6,1.5-6.1,1.5-2.8,0-4-1.7-3.2-4.6v-.1Z"/>
          <path class="cls-1" d="M510.1,301.7l3.2-11.1h-4.4l.3-1.1h5.7l-1.2,4.2c3.5-3.4,5.1-4.5,6.6-4.5s1.9.3,3,1l-.7,1.2c-1.3-.6-1.9-.8-2.5-.8-1.4,0-2.8.9-6.7,4.4l-1.9,6.7h-1.4Z"/>
          <path class="cls-1" d="M524.7,297.2c0-4.5,3.4-7.9,7.7-7.9s3.1.5,4.2,1.5l.4-1.3h1.3l-2.8,9.9c-.3.9,0,1.4.6,1.4s1.5-.4,2.9-1.3l.5.9c-2,1.2-2.8,1.6-3.7,1.6-1.4,0-2-1-1.7-2.5-2.4,1.9-3.5,2.5-4.9,2.5-2.7,0-4.5-2-4.5-4.8h0ZM529.5,300.8c1.4,0,2.8-.7,5.1-2.7l1.7-6c-1.1-1.1-2.4-1.6-4-1.6-3.5,0-6.2,2.9-6.2,6.7s1.4,3.7,3.4,3.7v-.1Z"/>
          <path class="cls-1" d="M545.3,290.6h-2.4l.3-1.1h3.7l-1.1,3.9c3-3.2,4.4-4.1,6.1-4.1s3.2,1.9,2.5,4.4l-1.7,5.7c-.3.9,0,1.4.6,1.4s1.5-.4,2.9-1.3l.5.9c-2,1.2-2.8,1.6-3.7,1.6-1.5,0-2.1-1.1-1.7-2.8l1.6-5.5c.6-2,0-3.2-1.5-3.2s-2.9,1.1-6.2,4.4l-1.9,6.8h-1.3l3.2-11.1h.1Z"/>
          <path class="cls-1" d="M571.5,291.4c-1-.6-2.9-1.1-4.6-1.1s-3.5.9-3.5,2.3.8,1.5,2.2,1.9l3.4.9c1.9.5,2.9,1.5,2.9,2.8,0,2.3-2.2,3.8-5.5,3.8-2.3,0-4.6-.7-6.1-1.8l.6-2.4h1.2l-.5,1.8c1.2.8,3,1.3,5.1,1.3s3.9-1,3.9-2.5-.7-1.5-2.1-1.8l-3.4-.8c-1.9-.5-3-1.5-3-2.8,0-2.2,2-3.6,5.1-3.6s4.4.6,5.7,1.5l-.7,2.6h-1.2l.5-1.9v-.2Z"/>
          <path class="cls-1" d="M575.6,306.4l4.5-15.7h-2.4l.3-1.1h3.7l-.6,2.1c1.6-1.6,3.2-2.4,4.8-2.4,2.8,0,4.7,2.1,4.7,5.2s-3.2,7.5-7.1,7.5-3.4-.9-4.7-2.4l-2,6.8h2.8l-.3,1.1h-6.6l.3-1.1h2.6ZM580.7,293.3l-1.4,4.9c1.1,1.7,2.7,2.6,4.4,2.6,3,0,5.6-2.8,5.6-6.2s-1.5-4.2-3.6-4.2-3,.8-5,2.9h0Z"/>
          <path class="cls-1" d="M594.3,297.2c0-4.5,3.4-7.9,7.7-7.9s3.1.5,4.2,1.5l.4-1.3h1.3l-2.8,9.9c-.3.9,0,1.4.6,1.4s1.5-.4,2.9-1.3l.5.9c-2,1.2-2.8,1.6-3.7,1.6-1.4,0-2-1-1.7-2.5-2.4,1.9-3.5,2.5-4.9,2.5-2.7,0-4.5-2-4.5-4.8h0ZM599.1,300.8c1.4,0,2.8-.7,5.1-2.7l1.7-6c-1.1-1.1-2.4-1.6-4-1.6-3.5,0-6.2,2.9-6.2,6.7s1.4,3.7,3.4,3.7v-.1Z"/>
          <path class="cls-1" d="M614.5,301.7l3.2-11.1h-4.4l.3-1.1h5.7l-1.2,4.2c3.5-3.4,5.1-4.5,6.6-4.5s1.9.3,3,1l-.7,1.2c-1.3-.6-1.9-.8-2.5-.8-1.4,0-2.8.9-6.7,4.4l-1.9,6.7h-1.4Z"/>
          <path class="cls-1" d="M629.6,296.2c0-3.9,3.3-7,7.4-7s5.2,1.6,5.2,3.7-2.3,3.5-6.6,3.5-3-.1-4.7-.3v.2c0,2.8,2,4.6,5.1,4.6s3.1-.4,5.3-1.4l.5,1c-2.4,1.1-4,1.5-5.9,1.5-3.7,0-6.3-2.3-6.3-5.8h0ZM631.1,295c1.6.2,3.1.3,4.4.3,3.5,0,5.5-.9,5.5-2.4s-1.7-2.5-4-2.5-5.3,1.9-5.8,4.6h-.1Z"/>
          <path class="cls-1" d="M649.7,290.6h-2.4l.3-1.1h3.7l-1.1,3.9c3-3.2,4.4-4.1,6.1-4.1s3.2,1.9,2.5,4.4l-1.7,5.7c-.3.9,0,1.4.6,1.4s1.5-.4,2.9-1.3l.5.9c-2,1.2-2.8,1.6-3.7,1.6-1.5,0-2.1-1.1-1.7-2.8l1.6-5.5c.6-2,0-3.2-1.5-3.2s-2.9,1.1-6.2,4.4l-1.9,6.8h-1.3l3.2-11.1h.1Z"/>
          <path class="cls-1" d="M666.9,297.3l1.9-6.7h-4.5l.3-1.1h4.5l1-3.6h1.3l-1,3.6h7.3l-.3,1.1h-7.3l-1.9,6.8c-.6,2.3,0,3.4,2.1,3.4,1.1,0,2.8-.4,5.6-1.3l.3,1c-2.8,1-4.6,1.5-6.1,1.5-2.8,0-4-1.7-3.2-4.6v-.1Z"/>
          <path class="cls-1" d="M687.3,301.8c-.3.1-.6.2-.9.2-.8,0-1.4-.6-1.4-1.4s.9-1.9,1.9-1.9,1.7.8,1.7,1.8c0,2.4-2.5,4.8-5.9,5.5l-.2-.8c2.4-.6,4.3-2,4.8-3.4h0Z"/>
          <path class="cls-1" d="M719.3,290.6h-2.4l.3-1.1h3.7l-1.1,3.9c3-3.2,4.4-4.1,6.1-4.1s3.2,1.9,2.5,4.4l-1.7,5.7c-.3.9,0,1.4.6,1.4s1.5-.4,2.9-1.3l.5.9c-2,1.2-2.8,1.6-3.7,1.6-1.5,0-2.1-1.1-1.7-2.8l1.6-5.5c.6-2,0-3.2-1.5-3.2s-2.9,1.1-6.2,4.4l-1.9,6.8h-1.3l3.2-11.1h.1Z"/>
          <path class="cls-1" d="M733.9,296.2c0-3.9,3-7,6.9-7s5.9,2.3,5.9,5.7-3,7-6.9,7-5.9-2.3-5.9-5.7ZM745.4,295c0-2.7-1.9-4.6-4.6-4.6s-5.5,2.5-5.5,5.7,1.9,4.6,4.6,4.6,5.5-2.5,5.5-5.7Z"/>
          <path class="cls-1" d="M753.9,297.3l1.9-6.7h-4.5l.3-1.1h4.5l1-3.6h1.3l-1,3.6h7.3l-.3,1.1h-7.3l-1.9,6.8c-.6,2.3,0,3.4,2.1,3.4,1.1,0,2.8-.4,5.6-1.3l.3,1c-2.8,1-4.6,1.5-6.1,1.5-2.8,0-4-1.7-3.2-4.6v-.1Z"/>
          <path class="cls-1" d="M786,297.2c0-4.5,3.4-7.9,7.7-7.9s3.1.5,4.2,1.5l.4-1.3h1.3l-4.8,16.9h2.6l-.3,1.1h-6.6l.3-1.1h2.6l2-6.9c-2.4,1.9-3.5,2.5-4.9,2.5-2.7,0-4.5-2-4.5-4.8h0ZM790.8,300.8c1.4,0,2.8-.7,5.1-2.7l1.7-6c-1.1-1.1-2.4-1.6-4-1.6-3.5,0-6.2,2.9-6.2,6.7s1.4,3.7,3.4,3.7v-.1Z"/>
          <path class="cls-1" d="M812.5,297.9c-2.9,3.1-4.3,4-6,4s-3.2-1.9-2.5-4.4l2-6.9h-2.4l.3-1.1h3.7l-2.3,8c-.6,2,0,3.2,1.5,3.2s2.9-1.1,6.1-4.4l2-6.9h1.3l-2.8,9.9c-.3.9,0,1.4.6,1.4s1.5-.4,2.9-1.3l.5.9c-2,1.2-2.8,1.6-3.7,1.6-1.5,0-2.1-1.1-1.7-2.8l.3-1.2h.2Z"/>
          <path class="cls-1" d="M822.3,289.5h6.4l-2.4,8.3c-.5,1.8,0,2.9,1.4,2.9s2.6-.6,5.9-2.5l.5,1c-3.7,2.1-5.1,2.7-6.5,2.7-2.3,0-3.3-1.7-2.6-4.2l2-7h-5l.3-1.1v-.1ZM827.3,285.2c0-.9.8-1.6,1.7-1.6s1.4.6,1.4,1.4-.7,1.6-1.6,1.6-1.4-.6-1.4-1.4h-.1Z"/>
          <path class="cls-1" d="M840.9,297.3l1.9-6.7h-4.5l.3-1.1h4.5l1-3.6h1.3l-1,3.6h7.3l-.3,1.1h-7.3l-1.9,6.8c-.6,2.3,0,3.4,2.1,3.4,1.1,0,2.8-.4,5.6-1.3l.3,1c-2.8,1-4.6,1.5-6.1,1.5-2.8,0-4-1.7-3.2-4.6v-.1Z"/>
          <path class="cls-1" d="M855.8,296.2c0-3.9,3.3-7,7.4-7s5.2,1.6,5.2,3.7-2.3,3.5-6.6,3.5-3-.1-4.7-.3v.2c0,2.8,2,4.6,5.1,4.6s3.1-.4,5.3-1.4l.5,1c-2.4,1.1-4,1.5-5.9,1.5-3.7,0-6.3-2.3-6.3-5.8h0ZM857.3,295c1.6.2,3.1.3,4.4.3,3.5,0,5.5-.9,5.5-2.4s-1.7-2.5-4-2.5-5.2,1.9-5.8,4.6h-.1Z"/>
          <path class="cls-1" d="M890.5,296.2c0-3.9,3-7,6.9-7s5.9,2.3,5.9,5.7-3,7-6.9,7-5.9-2.3-5.9-5.7ZM902,295c0-2.7-1.9-4.6-4.6-4.6s-5.5,2.5-5.5,5.7,1.9,4.6,4.6,4.6,5.5-2.5,5.5-5.7Z"/>
          <path class="cls-1" d="M906.2,306.4l4.5-15.7h-2.4l.3-1.1h3.7l-.6,2.1c1.6-1.6,3.2-2.4,4.8-2.4,2.8,0,4.7,2.1,4.7,5.2s-3.2,7.5-7.1,7.5-3.4-.9-4.7-2.4l-2,6.8h2.8l-.3,1.1h-6.6l.3-1.1h2.6ZM911.3,293.3l-1.4,4.9c1.1,1.7,2.7,2.6,4.4,2.6,3,0,5.6-2.8,5.6-6.2s-1.5-4.2-3.6-4.2-3,.8-5,2.9h0Z"/>
          <path class="cls-1" d="M924.9,297.2c0-4.5,3.4-7.9,7.7-7.9s3.1.5,4.2,1.5l.4-1.3h1.3l-2.8,9.9c-.3.9,0,1.4.6,1.4s1.5-.4,2.9-1.3l.5.9c-2,1.2-2.8,1.6-3.7,1.6-1.4,0-2-1-1.7-2.5-2.4,1.9-3.5,2.5-4.9,2.5-2.7,0-4.5-2-4.5-4.8h0ZM929.7,300.8c1.4,0,2.8-.7,5.1-2.7l1.7-6c-1.1-1.1-2.4-1.6-4-1.6-3.5,0-6.2,2.9-6.2,6.7s1.4,3.7,3.4,3.7v-.1Z"/>
          <path class="cls-1" d="M942.6,297.2c0-4.5,3.4-7.9,7.7-7.9s3.1.5,4.2,1.5l.4-1.3h1.3l-4.8,16.9h2.6l-.3,1.1h-6.6l.3-1.1h2.6l2-6.9c-2.4,1.9-3.5,2.5-4.9,2.5-2.7,0-4.5-2-4.5-4.8h0ZM947.4,300.8c1.4,0,2.8-.7,5.1-2.7l1.7-6c-1.1-1.1-2.4-1.6-4-1.6-3.5,0-6.2,2.9-6.2,6.7s1.4,3.7,3.4,3.7v-.1Z"/>
          <path class="cls-1" d="M969.1,297.9c-2.9,3.1-4.3,4-6,4s-3.2-1.9-2.5-4.4l2-6.9h-2.4l.3-1.1h3.7l-2.3,8c-.6,2,0,3.2,1.5,3.2s2.9-1.1,6.1-4.4l2-6.9h1.3l-2.8,9.9c-.3.9,0,1.4.6,1.4s1.5-.4,2.9-1.3l.5.9c-2,1.2-2.8,1.6-3.7,1.6-1.5,0-2.1-1.1-1.7-2.8l.3-1.2h.2Z"/>
          <path class="cls-1" d="M977.6,296.2c0-3.9,3.3-7,7.4-7s5.2,1.6,5.2,3.7-2.3,3.5-6.6,3.5-3-.1-4.7-.3v.2c0,2.8,2,4.6,5.1,4.6s3.1-.4,5.3-1.4l.5,1c-2.4,1.1-4,1.5-5.9,1.5-3.7,0-6.3-2.3-6.3-5.8h0ZM979.1,295c1.6.2,3.1.3,4.4.3,3.5,0,5.5-.9,5.5-2.4s-1.7-2.5-4-2.5-5.2,1.9-5.8,4.6h-.1Z"/>
          <path class="cls-1" d="M998.4,300.4c0-1,.8-1.8,1.8-1.8s1.6.7,1.6,1.6-.8,1.8-1.8,1.8-1.6-.6-1.6-1.5v-.1Z"/>
          <path class="cls-1" d="M488.8,370.1l10.2-15.6h1.7l1.2,15.6h1.7l-.3,1.2h-5.2l.3-1.2h2.3l-.3-4.4h-7.2l-2.9,4.4h2.2l-.3,1.2h-5.2l.3-1.2h1.6-.1ZM500.2,364.5l-.7-8.8-5.7,8.8h6.4Z"/>
          <path class="cls-1" d="M523.4,376l4.5-15.7h-2.4l.3-1.1h3.7l-.6,2.1c1.6-1.6,3.2-2.4,4.8-2.4,2.8,0,4.7,2.1,4.7,5.2s-3.2,7.5-7.1,7.5-3.4-.9-4.7-2.4l-2,6.8h2.8l-.3,1.1h-6.6l.3-1.1h2.6ZM528.5,362.9l-1.4,4.9c1.1,1.7,2.7,2.6,4.4,2.6,3,0,5.6-2.8,5.6-6.2s-1.5-4.2-3.6-4.2-3,.8-5,2.9Z"/>
          <path class="cls-1" d="M542.1,366.8c0-4.5,3.4-7.9,7.7-7.9s3.1.5,4.2,1.5l.4-1.3h1.3l-2.8,9.9c-.3.9,0,1.4.6,1.4s1.5-.4,2.9-1.3l.5.9c-2,1.2-2.8,1.6-3.7,1.6-1.4,0-2-1-1.7-2.5-2.4,1.9-3.5,2.5-4.9,2.5-2.7,0-4.5-2-4.5-4.8h0ZM546.9,370.4c1.4,0,2.8-.7,5.1-2.7l1.7-6c-1.1-1.1-2.4-1.6-4-1.6-3.5,0-6.2,2.9-6.2,6.7s1.4,3.7,3.4,3.7v-.1Z"/>
          <path class="cls-1" d="M568.9,367.5c-2.9,3.1-4.3,4-6,4s-3.2-1.9-2.5-4.4l2-6.9h-2.4l.3-1.1h3.7l-2.3,8c-.6,2,0,3.2,1.5,3.2s2.9-1.1,6.1-4.4l2-6.9h1.3l-2.8,9.9c-.3.9,0,1.4.6,1.4s1.5-.4,2.9-1.3l.5.9c-2,1.2-2.8,1.6-3.7,1.6-1.5,0-2.1-1.1-1.7-2.8l.3-1.2h.2Z"/>
          <path class="cls-1" d="M588.9,361c-1-.6-2.9-1.1-4.6-1.1s-3.5.9-3.5,2.3.8,1.5,2.2,1.9l3.4.9c1.9.5,2.9,1.5,2.9,2.8,0,2.3-2.2,3.8-5.5,3.8-2.3,0-4.6-.7-6.1-1.8l.6-2.4h1.2l-.5,1.8c1.2.8,3,1.3,5.1,1.3s3.9-1,3.9-2.5-.7-1.5-2.1-1.8l-3.4-.8c-1.9-.5-3-1.5-3-2.8,0-2.2,2-3.6,5.1-3.6s4.4.6,5.7,1.5l-.7,2.6h-1.2l.5-1.9v-.2Z"/>
          <path class="cls-1" d="M594.8,365.8c0-3.9,3.3-7,7.4-7s5.2,1.6,5.2,3.7-2.3,3.5-6.6,3.5-3-.1-4.7-.3v.2c0,2.8,2,4.6,5.1,4.6s3.1-.4,5.3-1.4l.5,1c-2.4,1.1-4,1.5-5.9,1.5-3.7,0-6.3-2.3-6.3-5.8ZM596.3,364.6c1.6.2,3.1.3,4.4.3,3.5,0,5.5-.9,5.5-2.4s-1.7-2.5-4-2.5-5.3,1.9-5.8,4.6h-.1Z"/>
          <path class="cls-1" d="M630.9,359.1h6.4l-2.4,8.3c-.5,1.8,0,2.9,1.4,2.9s2.6-.6,5.9-2.5l.5,1c-3.7,2.1-5.1,2.7-6.5,2.7-2.3,0-3.3-1.7-2.6-4.2l2-7h-5l.3-1.1v-.1ZM635.9,354.8c0-.9.8-1.6,1.7-1.6s1.4.6,1.4,1.4-.7,1.6-1.6,1.6-1.4-.6-1.4-1.4h-.1Z"/>
          <path class="cls-1" d="M649.7,360.2h-2.4l.3-1.1h3.7l-1.1,3.9c3-3.2,4.4-4.1,6.1-4.1s3.2,1.9,2.5,4.4l-1.7,5.7c-.3.9,0,1.4.6,1.4s1.5-.4,2.9-1.3l.5.9c-2,1.2-2.8,1.6-3.7,1.6-1.5,0-2.1-1.1-1.7-2.8l1.6-5.5c.6-2,0-3.2-1.5-3.2s-2.9,1.1-6.2,4.4l-1.9,6.8h-1.3l3.2-11.1h.1Z"/>
          <path class="cls-1" d="M681.3,366.8c0-4.5,3.4-7.9,7.7-7.9s3.1.5,4.2,1.5l.4-1.3h1.3l-2.8,9.9c-.3.9,0,1.4.6,1.4s1.5-.4,2.9-1.3l.5.9c-2,1.2-2.8,1.6-3.7,1.6-1.4,0-2-1-1.7-2.5-2.4,1.9-3.5,2.5-4.9,2.5-2.7,0-4.5-2-4.5-4.8h0ZM686.1,370.4c1.4,0,2.8-.7,5.1-2.7l1.7-6c-1.1-1.1-2.4-1.6-4-1.6-3.5,0-6.2,2.9-6.2,6.7s1.4,3.7,3.4,3.7v-.1Z"/>
          <path class="cls-1" d="M728.1,361c-1-.6-2.9-1.1-4.6-1.1s-3.5.9-3.5,2.3.8,1.5,2.2,1.9l3.4.9c1.9.5,2.9,1.5,2.9,2.8,0,2.3-2.2,3.8-5.5,3.8-2.3,0-4.6-.7-6.1-1.8l.6-2.4h1.2l-.5,1.8c1.2.8,3,1.3,5.1,1.3s3.9-1,3.9-2.5-.7-1.5-2.1-1.8l-3.4-.8c-1.9-.5-3-1.5-3-2.8,0-2.2,2-3.6,5.1-3.6s4.4.6,5.7,1.5l-.7,2.6h-1.2l.5-1.9v-.2Z"/>
          <path class="cls-1" d="M734,365.8c0-3.9,3.3-7,7.4-7s5.2,1.6,5.2,3.7-2.3,3.5-6.6,3.5-3-.1-4.7-.3v.2c0,2.8,2,4.6,5.1,4.6s3.1-.4,5.3-1.4l.5,1c-2.4,1.1-4,1.5-5.9,1.5-3.7,0-6.3-2.3-6.3-5.8ZM735.5,364.6c1.6.2,3.1.3,4.4.3,3.5,0,5.5-.9,5.5-2.4s-1.7-2.5-4-2.5-5.3,1.9-5.8,4.6h-.1Z"/>
          <path class="cls-1" d="M754.1,360.2h-2.4l.3-1.1h3.7l-1.1,3.9c3-3.2,4.4-4.1,6.1-4.1s3.2,1.9,2.5,4.4l-1.7,5.7c-.3.9,0,1.4.6,1.4s1.5-.4,2.9-1.3l.5.9c-2,1.2-2.8,1.6-3.7,1.6-1.5,0-2.1-1.1-1.7-2.8l1.6-5.5c.6-2,0-3.2-1.5-3.2s-2.9,1.1-6.2,4.4l-1.9,6.8h-1.3l3.2-11.1h.1Z"/>
          <path class="cls-1" d="M771.3,366.9l1.9-6.7h-4.5l.3-1.1h4.5l1-3.6h1.3l-1,3.6h7.3l-.3,1.1h-7.3l-1.9,6.8c-.6,2.3,0,3.4,2.1,3.4,1.1,0,2.8-.4,5.6-1.3l.3,1c-2.8,1-4.6,1.5-6.1,1.5-2.8,0-4-1.7-3.2-4.6v-.1Z"/>
          <path class="cls-1" d="M786.2,365.8c0-3.9,3.3-7,7.4-7s5.2,1.6,5.2,3.7-2.3,3.5-6.6,3.5-3-.1-4.7-.3v.2c0,2.8,2,4.6,5.1,4.6s3.1-.4,5.3-1.4l.5,1c-2.4,1.1-4,1.5-5.9,1.5-3.7,0-6.3-2.3-6.3-5.8ZM787.7,364.6c1.6.2,3.1.3,4.4.3,3.5,0,5.5-.9,5.5-2.4s-1.7-2.5-4-2.5-5.2,1.9-5.8,4.6h-.1Z"/>
          <path class="cls-1" d="M806.3,360.2h-2.4l.3-1.1h3.7l-1.1,3.9c3-3.2,4.4-4.1,6.1-4.1s3.2,1.9,2.5,4.4l-1.7,5.7c-.3.9,0,1.4.6,1.4s1.5-.4,2.9-1.3l.5.9c-2,1.2-2.8,1.6-3.7,1.6-1.5,0-2.1-1.1-1.7-2.8l1.6-5.5c.6-2,0-3.2-1.5-3.2s-2.9,1.1-6.2,4.4l-1.9,6.8h-1.3l3.2-11.1h.1Z"/>
          <path class="cls-1" d="M834,360.6l-.8,3h-1.2l.7-2.3c-1.1-.8-2.6-1.2-4.1-1.2-3.5,0-6.1,2.5-6.1,5.8s2.1,4.6,5.3,4.6,2.8-.3,5-1.3l.5,1c-2.5,1.1-3.9,1.5-5.6,1.5-3.8,0-6.5-2.4-6.5-5.8s3.2-6.9,7.4-6.9,3.9.6,5.5,1.8l-.1-.2Z"/>
          <path class="cls-1" d="M838.4,365.8c0-3.9,3.3-7,7.4-7s5.2,1.6,5.2,3.7-2.3,3.5-6.6,3.5-3-.1-4.7-.3v.2c0,2.8,2,4.6,5.1,4.6s3.1-.4,5.3-1.4l.5,1c-2.4,1.1-4,1.5-5.9,1.5-3.7,0-6.3-2.3-6.3-5.8ZM839.9,364.6c1.6.2,3.1.3,4.4.3,3.5,0,5.5-.9,5.5-2.4s-1.7-2.5-4-2.5-5.3,1.9-5.8,4.6h-.1Z"/>
          <path class="cls-1" d="M875.7,366.9l1.9-6.7h-4.5l.3-1.1h4.5l1-3.6h1.3l-1,3.6h7.3l-.3,1.1h-7.3l-1.9,6.8c-.6,2.3,0,3.4,2.1,3.4,1.1,0,2.8-.4,5.6-1.3l.3,1c-2.8,1-4.6,1.5-6.1,1.5-2.8,0-4-1.7-3.2-4.6v-.1Z"/>
          <path class="cls-1" d="M895.1,354h-2.3l.3-1.1h3.7l-2.9,10.2c3-3.2,4.4-4.1,6.1-4.1s3.2,1.9,2.5,4.4l-1.7,5.7c-.3.9,0,1.4.6,1.4s1.5-.4,2.9-1.3l.5.9c-2,1.2-2.8,1.6-3.7,1.6-1.5,0-2.1-1.1-1.7-2.8l1.6-5.5c.6-2,0-3.2-1.5-3.2s-2.9,1.1-6.2,4.4l-1.9,6.8h-1.3l5-17.3v-.1Z"/>
          <path class="cls-1" d="M907.5,366.8c0-4.5,3.4-7.9,7.7-7.9s3.1.5,4.2,1.5l.4-1.3h1.3l-2.8,9.9c-.3.9,0,1.4.6,1.4s1.5-.4,2.9-1.3l.5.9c-2,1.2-2.8,1.6-3.7,1.6-1.4,0-2-1-1.7-2.5-2.4,1.9-3.5,2.5-4.9,2.5-2.7,0-4.5-2-4.5-4.8h0ZM912.3,370.4c1.4,0,2.8-.7,5.1-2.7l1.7-6c-1.1-1.1-2.4-1.6-4-1.6-3.5,0-6.2,2.9-6.2,6.7s1.4,3.7,3.4,3.7v-.1Z"/>
          <path class="cls-1" d="M927.9,366.9l1.9-6.7h-4.5l.3-1.1h4.5l1-3.6h1.3l-1,3.6h7.3l-.3,1.1h-7.3l-1.9,6.8c-.6,2.3,0,3.4,2.1,3.4,1.1,0,2.8-.4,5.6-1.3l.3,1c-2.8,1-4.6,1.5-6.1,1.5-2.8,0-4-1.7-3.2-4.6v-.1Z"/>
          <path class="cls-1" d="M961.5,359.1h6.4l-2.4,8.3c-.5,1.8,0,2.9,1.4,2.9s2.6-.6,5.9-2.5l.5,1c-3.7,2.1-5.1,2.7-6.5,2.7-2.3,0-3.3-1.7-2.6-4.2l2-7h-5l.3-1.1v-.1ZM966.5,354.8c0-.9.8-1.6,1.7-1.6s1.4.6,1.4,1.4-.7,1.6-1.6,1.6-1.4-.6-1.4-1.4h-.1Z"/>
          <path class="cls-1" d="M989.1,361c-1-.6-2.9-1.1-4.6-1.1s-3.5.9-3.5,2.3.8,1.5,2.2,1.9l3.4.9c1.9.5,2.9,1.5,2.9,2.8,0,2.3-2.2,3.8-5.5,3.8-2.3,0-4.6-.7-6.1-1.8l.6-2.4h1.2l-.5,1.8c1.2.8,3,1.3,5.1,1.3s3.9-1,3.9-2.5-.7-1.5-2.1-1.8l-3.4-.8c-1.9-.5-3-1.5-3-2.8,0-2.2,2-3.6,5.1-3.6s4.4.6,5.7,1.5l-.7,2.6h-1.2l.5-1.9v-.2Z"/>
          <path class="cls-1" d="M1013.4,367.1l2-6.9h-2.4l.3-1.1h3.7l-2.3,8c-.6,2,0,3.2,1.5,3.2s2.9-1.1,6.1-4.4l2-6.9h1.3l-3.9,13.9c-.8,2.9-2.6,4.4-5.2,4.4s-3.1-.4-5.5-1.2l.5-1.2c2.5.9,3.7,1.2,5.1,1.2,2,0,3.2-1.1,3.9-3.5l1.5-5.2c-2.9,3.1-4.4,4.1-6,4.1s-3.2-1.9-2.5-4.4h-.1Z"/>
          <path class="cls-1" d="M1029.8,365.8c0-3.9,3.3-7,7.4-7s5.2,1.6,5.2,3.7-2.3,3.5-6.6,3.5-3-.1-4.7-.3v.2c0,2.8,2,4.6,5.1,4.6s3.1-.4,5.3-1.4l.5,1c-2.4,1.1-4,1.5-5.9,1.5-3.7,0-6.3-2.3-6.3-5.8ZM1031.3,364.6c1.6.2,3.1.3,4.4.3,3.5,0,5.5-.9,5.5-2.4s-1.7-2.5-4-2.5-5.2,1.9-5.8,4.6h-.1Z"/>
          <path class="cls-1" d="M1049.7,366.9l1.9-6.7h-4.5l.3-1.1h4.5l1-3.6h1.3l-1,3.6h7.3l-.3,1.1h-7.3l-1.9,6.8c-.6,2.3,0,3.4,2.1,3.4,1.1,0,2.8-.4,5.6-1.3l.3,1c-2.8,1-4.6,1.5-6.1,1.5-2.8,0-4-1.7-3.2-4.6v-.1Z"/>
          <path class="cls-1" d="M1084.5,366.9l1.9-6.7h-4.5l.3-1.1h4.5l1-3.6h1.3l-1,3.6h7.3l-.3,1.1h-7.3l-1.9,6.8c-.6,2.3,0,3.4,2.1,3.4,1.1,0,2.8-.4,5.6-1.3l.3,1c-2.8,1-4.6,1.5-6.1,1.5-2.8,0-4-1.7-3.2-4.6v-.1Z"/>
          <path class="cls-1" d="M1099.3,365.8c0-3.9,3-7,6.9-7s5.9,2.3,5.9,5.7-3,7-6.9,7-5.9-2.3-5.9-5.7ZM1110.8,364.6c0-2.7-1.9-4.6-4.6-4.6s-5.5,2.5-5.5,5.7,1.9,4.6,4.6,4.6,5.5-2.5,5.5-5.7Z"/>
          <path class="cls-1" d="M503.4,395.4l-.8,3h-1.2l.7-2.3c-1.1-.8-2.6-1.2-4.1-1.2-3.5,0-6.1,2.5-6.1,5.8s2.1,4.6,5.3,4.6,2.8-.3,5-1.3l.5,1c-2.5,1.1-3.9,1.5-5.6,1.5-3.8,0-6.5-2.4-6.5-5.8s3.2-6.9,7.4-6.9,3.9.6,5.5,1.8l-.1-.2Z"/>
          <path class="cls-1" d="M507.8,400.6c0-3.9,3-7,6.9-7s5.9,2.3,5.9,5.7-3,7-6.9,7-5.9-2.3-5.9-5.7ZM519.2,399.4c0-2.7-1.9-4.6-4.6-4.6s-5.5,2.5-5.5,5.7,1.9,4.6,4.6,4.6,5.5-2.5,5.5-5.7Z"/>
          <path class="cls-1" d="M527.9,395h-2.4l.3-1.1h3.7l-1.1,3.9c3-3.2,4.4-4.1,6.1-4.1s3.2,1.9,2.5,4.4l-1.7,5.7c-.3.9,0,1.4.6,1.4s1.5-.4,2.9-1.3l.5.9c-2,1.2-2.8,1.6-3.7,1.6-1.5,0-2.1-1.1-1.7-2.8l1.6-5.5c.6-2,0-3.2-1.5-3.2s-2.9,1.1-6.2,4.4l-1.9,6.8h-1.3l3.2-11.1h.1Z"/>
          <path class="cls-1" d="M545.1,401.7l1.9-6.7h-4.5l.3-1.1h4.5l1-3.6h1.3l-1,3.6h7.3l-.3,1.1h-7.3l-1.9,6.8c-.6,2.3,0,3.4,2.1,3.4,1.1,0,2.8-.4,5.6-1.3l.3,1c-2.8,1-4.6,1.5-6.1,1.5-2.8,0-4-1.7-3.2-4.6v-.1Z"/>
          <path class="cls-1" d="M561.3,393.9h6.4l-2.4,8.3c-.5,1.8,0,2.9,1.4,2.9s2.6-.6,5.9-2.5l.5,1c-3.7,2.1-5.1,2.7-6.5,2.7-2.3,0-3.3-1.7-2.6-4.2l2-7h-5l.3-1.1v-.1ZM566.3,389.6c0-.9.8-1.6,1.7-1.6s1.4.6,1.4,1.4-.7,1.6-1.6,1.6-1.4-.6-1.4-1.4h-.1Z"/>
          <path class="cls-1" d="M580.1,395h-2.4l.3-1.1h3.7l-1.1,3.9c3-3.2,4.4-4.1,6.1-4.1s3.2,1.9,2.5,4.4l-1.7,5.7c-.3.9,0,1.4.6,1.4s1.5-.4,2.9-1.3l.5.9c-2,1.2-2.8,1.6-3.7,1.6-1.5,0-2.1-1.1-1.7-2.8l1.6-5.5c.6-2,0-3.2-1.5-3.2s-2.9,1.1-6.2,4.4l-1.9,6.8h-1.3l3.2-11.1h.1Z"/>
          <path class="cls-1" d="M603.7,402.3c-2.9,3.1-4.3,4-6,4s-3.2-1.9-2.5-4.4l2-6.9h-2.4l.3-1.1h3.7l-2.3,8c-.6,2,0,3.2,1.5,3.2s2.9-1.1,6.1-4.4l2-6.9h1.3l-2.8,9.9c-.3.9,0,1.4.6,1.4s1.5-.4,2.9-1.3l.5.9c-2,1.2-2.8,1.6-3.7,1.6-1.5,0-2.1-1.1-1.7-2.8l.3-1.2h.2Z"/>
          <path class="cls-1" d="M612.2,400.6c0-3.9,3.3-7,7.4-7s5.2,1.6,5.2,3.7-2.3,3.5-6.6,3.5-3-.1-4.7-.3v.2c0,2.8,2,4.6,5.1,4.6s3.1-.4,5.3-1.4l.5,1c-2.4,1.1-4,1.5-5.9,1.5-3.7,0-6.3-2.3-6.3-5.8ZM613.7,399.4c1.6.2,3.1.3,4.4.3,3.5,0,5.5-.9,5.5-2.4s-1.7-2.5-4-2.5-5.2,1.9-5.8,4.6h-.1Z"/>
          <path class="cls-1" d="M635.1,406.2c-.3.1-.6.2-.9.2-.8,0-1.4-.6-1.4-1.4s.9-1.9,1.9-1.9,1.7.8,1.7,1.8c0,2.4-2.5,4.8-5.9,5.5l-.2-.8c2.4-.6,4.3-2,4.8-3.4h0Z"/>
          <path class="cls-1" d="M664.3,400.6c0-3.9,3-7,6.9-7s5.9,2.3,5.9,5.7-3,7-6.9,7-5.9-2.3-5.9-5.7ZM675.8,399.4c0-2.7-1.9-4.6-4.6-4.6s-5.5,2.5-5.5,5.7,1.9,4.6,4.6,4.6,5.5-2.5,5.5-5.7Z"/>
          <path class="cls-1" d="M684.1,406.1l3.2-11.1h-4.4l.3-1.1h5.7l-1.2,4.2c3.5-3.4,5.1-4.5,6.6-4.5s1.9.3,3,1l-.7,1.2c-1.3-.6-1.9-.8-2.5-.8-1.4,0-2.8.9-6.7,4.4l-1.9,6.7h-1.4Z"/>
          <path class="cls-1" d="M716.1,401.6c0-4.5,3.4-7.9,7.7-7.9s3.1.5,4.2,1.5l.4-1.3h1.3l-2.8,9.9c-.3.9,0,1.4.6,1.4s1.5-.4,2.9-1.3l.5.9c-2,1.2-2.8,1.6-3.7,1.6-1.4,0-2-1-1.7-2.5-2.4,1.9-3.5,2.5-4.9,2.5-2.7,0-4.5-2-4.5-4.8h0ZM720.9,405.2c1.4,0,2.8-.7,5.1-2.7l1.7-6c-1.1-1.1-2.4-1.6-4-1.6-3.5,0-6.2,2.9-6.2,6.7s1.4,3.7,3.4,3.7v-.1Z"/>
          <path class="cls-1" d="M757.5,387.7l-2.4,8.4c1.6-1.6,3.2-2.4,4.8-2.4,2.8,0,4.7,2.1,4.7,5.2s-3.2,7.5-7.1,7.5-3.4-.9-4.7-2.4l-.6,2.2h-1.3l4.9-17.3h-2.5l.3-1.1h3.8l.1-.1ZM754.6,397.7l-1.4,4.8c1.1,1.7,2.6,2.6,4.4,2.6,3,0,5.6-2.8,5.6-6.2s-1.4-4.2-3.6-4.2-3,.8-5,2.9v.1Z"/>
          <path class="cls-1" d="M771.1,406.1l3.2-11.1h-4.4l.3-1.1h5.7l-1.2,4.2c3.5-3.4,5.1-4.5,6.6-4.5s1.9.3,3,1l-.7,1.2c-1.3-.6-1.9-.8-2.5-.8-1.4,0-2.8.9-6.7,4.4l-1.9,6.7h-1.4Z"/>
          <path class="cls-1" d="M786.2,400.6c0-3.9,3.3-7,7.4-7s5.2,1.6,5.2,3.7-2.3,3.5-6.6,3.5-3-.1-4.7-.3v.2c0,2.8,2,4.6,5.1,4.6s3.1-.4,5.3-1.4l.5,1c-2.4,1.1-4,1.5-5.9,1.5-3.7,0-6.3-2.3-6.3-5.8ZM787.7,399.4c1.6.2,3.1.3,4.4.3,3.5,0,5.5-.9,5.5-2.4s-1.7-2.5-4-2.5-5.2,1.9-5.8,4.6h-.1Z"/>
          <path class="cls-1" d="M803.1,401.6c0-4.5,3.4-7.9,7.7-7.9s3.1.5,4.2,1.5l.4-1.3h1.3l-2.8,9.9c-.3.9,0,1.4.6,1.4s1.5-.4,2.9-1.3l.5.9c-2,1.2-2.8,1.6-3.7,1.6-1.4,0-2-1-1.7-2.5-2.4,1.9-3.5,2.5-4.9,2.5-2.7,0-4.5-2-4.5-4.8h0ZM807.9,405.2c1.4,0,2.8-.7,5.1-2.7l1.7-6c-1.1-1.1-2.4-1.6-4-1.6-3.5,0-6.2,2.9-6.2,6.7s1.4,3.7,3.4,3.7v-.1Z"/>
          <path class="cls-1" d="M825.7,388.8h-2.3l.3-1.1h3.7l-3.9,13.8,6.1-6c1.5-1.4,2.1-1.8,3-1.8s1.4.2,2.8,1.2l-.7,1c-1.2-.8-1.7-1-2.2-1s-.8.2-2,1.3l-2.5,2.3,2.4,5.9c.2.5.5.7.9.7s1.3-.3,2.8-1.3l.5.9c-1.9,1.2-2.8,1.6-3.5,1.6s-1.5-.4-1.9-1.6l-2.1-5.3-4,3.7-.8,3h-1.3l5-17.3h-.3Z"/>
          <path class="cls-1" d="M857.1,393.9h6.4l-2.4,8.3c-.5,1.8,0,2.9,1.4,2.9s2.6-.6,5.9-2.5l.5,1c-3.7,2.1-5.1,2.7-6.5,2.7-2.3,0-3.3-1.7-2.6-4.2l2-7h-5l.3-1.1v-.1ZM862.1,389.6c0-.9.8-1.6,1.7-1.6s1.4.6,1.4,1.4-.7,1.6-1.6,1.6-1.4-.6-1.4-1.4h-.1Z"/>
          <path class="cls-1" d="M875.9,395h-2.4l.3-1.1h3.7l-1.1,3.9c3-3.2,4.4-4.1,6.1-4.1s3.2,1.9,2.5,4.4l-1.7,5.7c-.3.9,0,1.4.6,1.4s1.5-.4,2.9-1.3l.5.9c-2,1.2-2.8,1.6-3.7,1.6-1.5,0-2.1-1.1-1.7-2.8l1.6-5.5c.6-2,0-3.2-1.5-3.2s-2.9,1.1-6.2,4.4l-1.9,6.8h-1.3l3.2-11.1h.1Z"/>
          <path class="cls-1" d="M907.5,401.6c0-4.5,3.4-7.9,7.7-7.9s3.1.5,4.2,1.5l.4-1.3h1.3l-2.8,9.9c-.3.9,0,1.4.6,1.4s1.5-.4,2.9-1.3l.5.9c-2,1.2-2.8,1.6-3.7,1.6-1.4,0-2-1-1.7-2.5-2.4,1.9-3.5,2.5-4.9,2.5-2.7,0-4.5-2-4.5-4.8h0ZM912.3,405.2c1.4,0,2.8-.7,5.1-2.7l1.7-6c-1.1-1.1-2.4-1.6-4-1.6-3.5,0-6.2,2.9-6.2,6.7s1.4,3.7,3.4,3.7v-.1Z"/>
          <path class="cls-1" d="M955.5,403.4c-4,2.3-5.4,2.8-6.8,2.8-2.3,0-3.2-1.7-2.5-4.2l3.8-13.2h-5l.3-1.1h6.4l-4.2,14.6c-.5,1.8,0,2.9,1.4,2.9s2.6-.6,6.2-2.6l.5,1-.1-.2Z"/>
          <path class="cls-1" d="M961.5,393.9h6.4l-2.4,8.3c-.5,1.8,0,2.9,1.4,2.9s2.6-.6,5.9-2.5l.5,1c-3.7,2.1-5.1,2.7-6.5,2.7-2.3,0-3.3-1.7-2.6-4.2l2-7h-5l.3-1.1v-.1ZM966.5,389.6c0-.9.8-1.6,1.7-1.6s1.4.6,1.4,1.4-.7,1.6-1.6,1.6-1.4-.6-1.4-1.4h-.1Z"/>
          <path class="cls-1" d="M989.1,395.8c-1-.6-2.9-1.1-4.6-1.1s-3.5.9-3.5,2.3.8,1.5,2.2,1.9l3.4.9c1.9.5,2.9,1.5,2.9,2.8,0,2.3-2.2,3.8-5.5,3.8-2.3,0-4.6-.7-6.1-1.8l.6-2.4h1.2l-.5,1.8c1.2.8,3,1.3,5.1,1.3s3.9-1,3.9-2.5-.7-1.5-2.1-1.8l-3.4-.8c-1.9-.5-3-1.5-3-2.8,0-2.2,2-3.6,5.1-3.6s4.4.6,5.7,1.5l-.7,2.6h-1.2l.5-1.9v-.2Z"/>
          <path class="cls-1" d="M997.5,401.7l1.9-6.7h-4.5l.3-1.1h4.5l1-3.6h1.3l-1,3.6h7.3l-.3,1.1h-7.3l-1.9,6.8c-.6,2.3,0,3.4,2.1,3.4,1.1,0,2.8-.4,5.6-1.3l.3,1c-2.8,1-4.6,1.5-6.1,1.5-2.8,0-4-1.7-3.2-4.6v-.1Z"/>
          <path class="cls-1" d="M1029.7,400.6c0-3.9,3-7,6.9-7s5.9,2.3,5.9,5.7-3,7-6.9,7-5.9-2.3-5.9-5.7ZM1041.2,399.4c0-2.7-1.9-4.6-4.6-4.6s-5.5,2.5-5.5,5.7,1.9,4.6,4.6,4.6,5.5-2.5,5.5-5.7Z"/>
          <path class="cls-1" d="M1053.8,393.9l.7-2.4c.8-2.8,2.3-4.1,4.7-4.1s2.5.4,4.6,1.3l-.6,1.1c-2.1-.9-3.1-1.2-4.1-1.2-1.8,0-2.8.9-3.4,3.2l-.6,2.2h5.5l-.3,1.1h-5.5l-3.9,13.5c-.7,2.6-1.9,3.6-3.9,3.6s-2.2-.3-3.9-.8l.3-1.2c1.8.6,2.8.8,3.7.8,1.4,0,2-.7,2.6-2.8l3.7-13.1h-4.2l.3-1.1h4.2l.1-.1Z"/>
          <path class="cls-1" d="M492.7,440.9l3.2-11.1h-4.4l.3-1.1h5.7l-1.2,4.2c3.5-3.4,5.1-4.5,6.6-4.5s1.9.3,3,1l-.7,1.2c-1.3-.6-1.9-.8-2.5-.8-1.4,0-2.8.9-6.7,4.4l-1.9,6.7h-1.4Z"/>
          <path class="cls-1" d="M507.8,435.4c0-3.9,3.3-7,7.4-7s5.2,1.6,5.2,3.7-2.3,3.5-6.6,3.5-3-.1-4.7-.3v.2c0,2.8,2,4.6,5.1,4.6s3.1-.4,5.3-1.4l.5,1c-2.4,1.1-4,1.5-5.9,1.5-3.7,0-6.3-2.3-6.3-5.8ZM509.3,434.2c1.6.2,3.1.3,4.4.3,3.5,0,5.5-.9,5.5-2.4s-1.7-2.5-4-2.5-5.2,1.9-5.8,4.6h-.1Z"/>
          <path class="cls-1" d="M537.9,438.2c-4,2.3-5.4,2.8-6.8,2.8-2.3,0-3.2-1.7-2.5-4.2l3.8-13.2h-5l.3-1.1h6.4l-4.2,14.6c-.5,1.8,0,2.9,1.4,2.9s2.6-.6,6.2-2.6l.5,1-.1-.2Z"/>
          <path class="cls-1" d="M542.1,436.4c0-4.5,3.4-7.9,7.7-7.9s3.1.5,4.2,1.5l.4-1.3h1.3l-2.8,9.9c-.3.9,0,1.4.6,1.4s1.5-.4,2.9-1.3l.5.9c-2,1.2-2.8,1.6-3.7,1.6-1.4,0-2-1-1.7-2.5-2.4,1.9-3.5,2.5-4.9,2.5-2.7,0-4.5-2-4.5-4.8h0ZM546.9,440c1.4,0,2.8-.7,5.1-2.7l1.7-6c-1.1-1.1-2.4-1.6-4-1.6-3.5,0-6.2,2.9-6.2,6.7s1.4,3.7,3.4,3.7v-.1Z"/>
          <path class="cls-1" d="M562.5,436.5l1.9-6.7h-4.5l.3-1.1h4.5l1-3.6h1.3l-1,3.6h7.3l-.3,1.1h-7.3l-1.9,6.8c-.6,2.3,0,3.4,2.1,3.4,1.1,0,2.8-.4,5.6-1.3l.3,1c-2.8,1-4.6,1.5-6.1,1.5-2.8,0-4-1.7-3.2-4.6v-.1Z"/>
          <path class="cls-1" d="M577.4,435.4c0-3.9,3.3-7,7.4-7s5.2,1.6,5.2,3.7-2.3,3.5-6.6,3.5-3-.1-4.7-.3v.2c0,2.8,2,4.6,5.1,4.6s3.1-.4,5.3-1.4l.5,1c-2.4,1.1-4,1.5-5.9,1.5-3.7,0-6.3-2.3-6.3-5.8ZM578.9,434.2c1.6.2,3.1.3,4.4.3,3.5,0,5.5-.9,5.5-2.4s-1.7-2.5-4-2.5-5.2,1.9-5.8,4.6h-.1Z"/>
          <path class="cls-1" d="M594.3,436.4c0-4.5,3.4-7.9,7.7-7.9s3.1.5,4.2,1.5l1.9-6.4h-3.3l.3-1.1h4.6l-4.6,16.1c-.3.9,0,1.4.6,1.4s1.5-.4,2.9-1.3l.5.9c-2,1.2-2.8,1.6-3.7,1.6-1.4,0-2.1-1-1.7-2.5-2.4,1.9-3.5,2.5-4.9,2.5-2.7,0-4.5-2-4.5-4.8ZM599.1,440c1.4,0,2.8-.7,5.1-2.7l1.7-6c-1.1-1.1-2.4-1.6-4-1.6-3.5,0-6.2,2.9-6.2,6.7s1.4,3.7,3.4,3.7v-.1Z"/>
          <path class="cls-1" d="M632.1,436.5l1.9-6.7h-4.5l.3-1.1h4.5l1-3.6h1.3l-1,3.6h7.3l-.3,1.1h-7.3l-1.9,6.8c-.6,2.3,0,3.4,2.1,3.4,1.1,0,2.8-.4,5.6-1.3l.3,1c-2.8,1-4.6,1.5-6.1,1.5-2.8,0-4-1.7-3.2-4.6v-.1Z"/>
          <path class="cls-1" d="M651.5,423.6h-2.3l.3-1.1h3.7l-2.9,10.2c3-3.2,4.4-4.1,6.1-4.1s3.2,1.9,2.5,4.4l-1.7,5.7c-.3.9,0,1.4.6,1.4s1.5-.4,2.9-1.3l.5.9c-2,1.2-2.8,1.6-3.7,1.6-1.5,0-2.1-1.1-1.7-2.8l1.6-5.5c.6-2,0-3.2-1.5-3.2s-2.9,1.1-6.2,4.4l-1.9,6.8h-1.3l5-17.3v-.1Z"/>
          <path class="cls-1" d="M665.7,428.7h6.4l-2.4,8.3c-.5,1.8,0,2.9,1.4,2.9s2.6-.6,5.9-2.5l.5,1c-3.7,2.1-5.1,2.7-6.5,2.7-2.3,0-3.3-1.7-2.6-4.2l2-7h-5l.3-1.1v-.1ZM670.7,424.4c0-.9.8-1.6,1.7-1.6s1.4.6,1.4,1.4-.7,1.6-1.6,1.6-1.4-.6-1.4-1.4h-.1Z"/>
          <path class="cls-1" d="M684.5,429.8h-2.4l.3-1.1h3.7l-1.1,3.9c3-3.2,4.4-4.1,6.1-4.1s3.2,1.9,2.5,4.4l-1.7,5.7c-.3.9,0,1.4.6,1.4s1.5-.4,2.9-1.3l.5.9c-2,1.2-2.8,1.6-3.7,1.6-1.5,0-2.1-1.1-1.7-2.8l1.6-5.5c.6-2,0-3.2-1.5-3.2s-2.9,1.1-6.2,4.4l-1.9,6.8h-1.3l3.2-11.1h.1Z"/>
          <path class="cls-1" d="M699,436.4c0-4.5,3.4-7.9,7.7-7.9s3.1.5,4.2,1.5l.4-1.3h1.3l-3.9,13.9c-.8,2.9-2.6,4.4-5.2,4.4s-3.1-.4-5.5-1.2l.5-1.2c2.5.9,3.7,1.2,5.1,1.2,2,0,3.2-1.1,3.9-3.5l1-3.6c-2.4,1.9-3.5,2.5-4.9,2.5-2.7,0-4.5-2-4.5-4.8h-.1ZM703.8,440c1.4,0,2.8-.7,5.1-2.7l1.7-6c-1.1-1.1-2.4-1.6-4-1.6-3.5,0-6.2,2.9-6.2,6.7s1.4,3.7,3.4,3.7v-.1Z"/>
          <path class="cls-1" d="M728.1,430.6c-1-.6-2.9-1.1-4.6-1.1s-3.5.9-3.5,2.3.8,1.5,2.2,1.9l3.4.9c1.9.5,2.9,1.5,2.9,2.8,0,2.3-2.2,3.8-5.5,3.8-2.3,0-4.6-.7-6.1-1.8l.6-2.4h1.2l-.5,1.8c1.2.8,3,1.3,5.1,1.3s3.9-1,3.9-2.5-.7-1.5-2.1-1.8l-3.4-.8c-1.9-.5-3-1.5-3-2.8,0-2.2,2-3.6,5.1-3.6s4.4.6,5.7,1.5l-.7,2.6h-1.2l.5-1.9v-.2Z"/>
          <path class="cls-1" d="M737.4,439.6c0-1,.8-1.8,1.8-1.8s1.6.7,1.6,1.6-.8,1.8-1.8,1.8-1.6-.6-1.6-1.5v-.1Z"/>
        </g>
        <path class="cls-1" d="M229.8,57.8h7.9s1,8.9-7.9,8.9v1.7s11.8,2.1,11.8-10.6v-10.1h-11.8v10.1h0Z"/>
        <polygon class="cls-1" points="279.6 109.3 273.5 115.5 279.6 121.6 282.7 118.5 285.8 121.6 279.6 127.8 276.5 127.8 276.5 130.8 279.6 130.8 288.8 121.6 285.8 115.5 279.6 109.3"/>
        <path class="cls-1" d="M360.3,152c-.2-4-3.4-7.2-7.5-7.2s-7.5,3.3-7.5,7.5,2.8,6.9,6.5,7.4c-1.5,1.5-3.5,2.4-5.6,2.7v1.6c5.7.7,10.9-2.9,13.1-8,.6-1.1,1-2.4,1-3.8s0-.2,0-.2h0Z"/>
        <polygon class="cls-1" points="459.2 199.5 454.7 199.5 454.7 205.5 448.4 215.9 452.3 218.2 459.2 206.7 459.2 199.5"/>
        <path class="cls-1" d="M287.8,61h0c.5,2.9.3,5.8-.4,8.6-1.1,4.3-3.2,8.3-6.3,11.5l1.8,1.7c1.5-1.6,2.8-3.2,4-5,2.2-3.2,3.8-6.9,4.9-10.7.2-.9.5-1.9.7-2.8.4-1.6.6-3.3.9-4.8h-4.2c-.8,0-1.4.7-1.3,1.5h-.1Z"/>
        <path class="cls-1" d="M391.8,110.9c0-.1,0-.2-.1-.3l-1.9-.2c-3.2-.1-6.3,0-9.5.2-.2,0-.4,0-.5.2-.1.1-.1.3-.1.5,0,2.9-.2,5.8-.3,8.6v.4c0,.1.2.2.4.3,2.2.9,4.7.3,7.1.6,0,.2,0,.4-.2.6-1.3,2.6-3.4,4.8-5.9,6.3-.5.3-1.1.6-1.4,1.1.9.5,1.9.8,2.9,1.1.2,0,.4.1.5,0,.1,0,.2-.1.4-.2,3.2-2.1,5.9-4.8,8-7.9.1-.2.3-.4.3-.6v-.6c0-.7.1-1.4.2-2.1.2-2.8.4-5.3,0-8.1l.1.1Z"/>
      </g>
    </g>
  </g>
</svg>