<?xml version="1.0" encoding="UTF-8"?>
<svg id="Layer_1" xmlns="http://www.w3.org/2000/svg" version="1.1" viewBox="0 0 841.9 595.3">
  <!-- Generator: Adobe Illustrator 29.5.0, SVG Export Plug-In . SVG Version: 2.1.0 Build 137)  -->
  <defs>
    <style>
      .st0 {
        fill: #fff;
      }
    </style>
  </defs>
  <path class="st0" d="M248.8,172c-6.1,6.6-9.2,8.6-12.7,8.6s-6.9-4-5.4-9.3l4.2-14.7h-5.1l.7-2.4h7.9l-4.9,17.1c-1.2,4.2,0,6.8,3.3,6.8s6.2-2.3,12.9-9.2l4.3-14.6h2.8l-6,20.9c-.6,1.9,0,3,1.3,3s3.1-.9,6.2-2.8l1.1,2c-4.3,2.6-6,3.3-7.8,3.3-3.1,0-4.5-2.4-3.5-6l.7-2.6Z"/>
  <path class="st0" d="M285.3,176c-2.2-1.3-6.2-2.3-9.7-2.3s-7.5,2-7.5,4.9,1.6,3.3,4.7,4.1l7.3,1.8c4,1,6.1,3.1,6.1,5.9,0,4.8-4.6,8-11.7,8.1-4.9,0-9.9-1.5-12.9-3.9l1.4-5.2h2.6l-1,3.9c2.5,1.8,6.3,2.8,10.8,2.8s8.2-2.2,8.2-5.4-1.5-3.1-4.5-3.9l-7.3-1.8c-4.1-1-6.3-3.1-6.3-6,0-4.6,4.3-7.7,10.8-7.7s9.3,1.2,12.2,3.1l-1.5,5.5h-2.5l1-4Z"/>
  <path class="st0" d="M300.6,206.2c-.8.4-1.7.5-2.6.5-2.4,0-4.2-1.8-4.2-4.1s2.6-5.7,5.8-5.7,5,2.3,5,5.4c0,7.4-7.5,14.4-17.8,16.6l-.6-2.5c7.2-1.8,12.9-5.9,14.4-10.2Z"/>
  <path class="st0" d="M392,402.2l-5,17.7c3.3-3.4,6.7-5.1,10.1-5.1,5.9,0,9.8,4.4,9.8,11.1s-6.6,15.9-14.8,15.9-7.2-1.8-9.8-5.2l-1.3,4.6h-2.8l10.3-36.7h-5.2l.7-2.4h7.9ZM386,423.5l-2.8,10.3c2.3,3.6,5.5,5.5,9.2,5.5,6.4,0,11.8-6,11.8-13.1s-3-8.9-7.6-8.9-6.2,1.7-10.6,6.2Z"/>
  <g>
    <path class="st0" d="M470.3,393.2c1.9-.2,3.2-2,3-3.9-.2-1.6-1.7-2.8-3.3-2.6s-3.3,2-3,3.9,1.7,2.8,3.4,2.5Z"/>
    <path class="st0" d="M485.4,420.4c-7.2,4.1-11.2,5.7-14.1,5.7-3.4,0-4.7-2.5-3.4-6.8l4.9-17.2h-14s-.7,2.4-.7,2.4h11.3s-1.6,5.4-1.6,5.4c0,0-23.4,18.4-29,21.7-2.4,1.4-3.6-2-2.3-5.5l6.5-18.3h-14.3c.4-1.1.8-2.2,1.2-3.4h-2.8c-2.8,8.9-8.3,17.3-14.6,22.5l1.5,1.9c5.5-4.4,10.4-11,13.7-18.7h11.6s-5.6,15.9-5.6,15.9c-1.6,4.6.4,8.1,4.8,8.1,3.6,0,28.4-20.7,28.4-20.7l-1.5,5.4c-1.7,5.9.6,9.7,5.9,9.7s7.6-1.7,15.4-6.2l-1.1-2Z"/>
  </g>
  <path class="st0" d="M489.2,406.7c0-8.2,7.1-14.8,15.8-14.8s11,3.3,11,7.8-4.8,7.4-14,7.4-6.4-.2-10-.7v.4c0,5.9,4.3,9.7,10.8,9.7s6.7-.8,11.2-2.9l1,2.2c-5.1,2.3-8.6,3.2-12.4,3.2-7.9,0-13.4-5-13.4-12.3ZM492.3,404.1c3.3.4,6.6.6,9.4.6,7.3,0,11.6-1.8,11.6-5.1s-3.5-5.2-8.6-5.2-11.2,4.1-12.4,9.7Z"/>
  <path class="st0" d="M586.8,392.1l4.2-14.7h-5.1l.7-2.4h7.9l-4.9,17.1c-1.2,4.2,0,6.8,3.3,6.8s6.2-2.3,12.9-9.2l4.2-14.6h2.8l-8.4,29.4c-1.7,6.1-5.5,9.4-11,9.4s-6.5-.8-11.8-2.6l1-2.5c5.4,2,7.9,2.6,10.9,2.6,4.2,0,6.8-2.4,8.3-7.5l3.1-11c-6.2,6.7-9.2,8.6-12.8,8.6s-6.9-4-5.4-9.3Z"/>
  <path class="st0" d="M577.8,402.1c-7.6,4.3-10.2,5.4-12.9,5.4-4.3,0-6.1-3.1-4.8-8l8-26.9h-22.1l.6-2.1h24.7l-8.8,29.5c-1,3.4,0,5.4,2.6,5.4s5-1.1,11.7-5l.9,1.8Z"/>
  <path class="st0" d="M547.1,372.6c-6,0-6.7,5.2-7.6,9.6l-.3,1.5h15.7l-.5,2.2h-15.6s-6.1,25.9-6.3,26.7-1.5,2.5-3.5.6c-2.2-2-4.8-4.4-4.8-4.4l.5-2.2,5.9,4.4,5.9-25.1h-9.3l.5-2.2h9.3l.3-1.5c1-4.9,1.5-11.8,9.7-11.8l.4,2.2Z"/>
</svg>